<?xml version="1.0" standalone="no"?>
<!DOCTYPE svg PUBLIC "-//W3C//DTD SVG 1.1//EN" "http://www.w3.org/Graphics/SVG/1.1/DTD/svg11.dtd" >
<svg xmlns="http://www.w3.org/2000/svg" xmlns:xlink="http://www.w3.org/1999/xlink" version="1.1">
<metadata></metadata>
<defs>
<font id="fs_elliotlight" horiz-adv-x="1179" >
<font-face units-per-em="2048" ascent="1536" descent="-512" />
<missing-glyph horiz-adv-x="491" />
<glyph unicode="&#xfb01;" horiz-adv-x="1134" d="M59 909v80h217v166q0 68 25 125t70 99t105.5 64.5t131.5 22.5q129 0 285 -51l-21 -78q-74 23 -136 35t-118 12q-53 0 -97 -17t-76.5 -48t-51 -73t-18.5 -93v-164h581v-989h-98v909h-483v-909h-99v909h-217z" />
<glyph unicode="&#xfb02;" horiz-adv-x="1232" d="M59 909v80h217v166q0 70 25 127t70 98t105.5 63.5t133.5 22.5q78 0 163 -10t183 -26v-1237q0 -63 36 -98.5t98 -35.5q47 0 102 15l14 -80q-74 -18 -133 -19q-98 0 -156.5 56.5t-58.5 152.5v1176q-61 10 -121.5 17t-120.5 7q-109 0 -175 -63.5t-66 -167.5v-164h305v-80 h-305v-909h-99v909h-217z" />
<glyph unicode="&#xfb03;" horiz-adv-x="1748" d="M59 909v80h217v209q0 119 76 193.5t197 74.5q94 0 182 -26l-16 -80q-41 12 -77 17t-71 5q-86 0 -139 -52t-53 -138v-203h516v166q0 68 24.5 125t68.5 99t104.5 64.5t132.5 22.5q131 0 286 -51l-22 -78q-72 23 -134.5 35t-117.5 12q-106 0 -175 -64.5t-69 -166.5v-164h580 v-989h-99v909h-481v-909h-98v909h-516v-909h-99v909h-217z" />
<glyph unicode="&#xfb04;" horiz-adv-x="1847" d="M59 909v80h217v209q0 119 76 193.5t197 74.5q94 0 182 -26l-16 -80q-41 12 -77 17t-71 5q-86 0 -139 -52t-53 -138v-203h516v166q0 70 24.5 127t68.5 98t105.5 63.5t135.5 22.5q78 0 163 -10t181 -26v-1237q0 -63 36.5 -98.5t98.5 -35.5q20 0 47 3.5t55 11.5l15 -80 q-78 -18 -135 -19q-98 0 -157 56.5t-59 152.5v1176q-59 10 -119.5 17t-119.5 7q-109 0 -175.5 -63.5t-66.5 -167.5v-164h303v-80h-303v-909h-98v909h-516v-909h-99v909h-217z" />
<glyph horiz-adv-x="0" />
<glyph unicode="&#xd;" horiz-adv-x="491" />
<glyph unicode=" "  horiz-adv-x="491" />
<glyph unicode="&#x09;" horiz-adv-x="491" />
<glyph unicode="&#xa0;" horiz-adv-x="491" />
<glyph unicode="!" horiz-adv-x="516" d="M180 59q0 35 21.5 55.5t56.5 20.5t55.5 -20.5t20.5 -55.5t-20.5 -56t-55.5 -21t-56.5 21t-21.5 56zM207 1376h102l-10 -964h-82z" />
<glyph unicode="&#x22;" horiz-adv-x="774" d="M160 1376h96l-8 -422h-78zM516 1376h96l-8 -422h-78z" />
<glyph unicode="#" horiz-adv-x="1323" d="M33 397v80h295l82 422h-281v80h295l78 405l80 -10l-76 -395h422l78 405l77 -10l-73 -395h280v-80h-295l-82 -422h281v-80h-295l-78 -405l-80 10l74 395h-420l-78 -405l-79 10l75 395h-280zM410 477h421l80 422h-419z" />
<glyph unicode="$" d="M184 164l27 80q102 -41 195.5 -64.5t177.5 -23.5q141 0 227 62.5t86 170.5q0 88 -52 137t-130 81t-170 55.5t-170 61.5t-130 100.5t-52 170.5q0 129 96 211t258 92v340h86v-338q74 -4 153.5 -25.5t167.5 -55.5l-26 -80q-92 39 -173 59.5t-159 20.5q-139 0 -222 -61.5 t-83 -162.5q0 -88 52 -135t130 -77.5t170 -54t170 -61.5t130 -102.5t52 -175.5q0 -135 -98 -219t-264 -92v-340h-86v338q-84 4 -174 25.5t-189 62.5z" />
<glyph unicode="%" horiz-adv-x="1769" d="M102 1032q0 80 25 147.5t68 117t102 77t131 27.5t132.5 -27.5t103.5 -77t67.5 -117t24.5 -147.5q0 -82 -24.5 -149.5t-67.5 -116.5t-103.5 -75.5t-132.5 -26.5t-131 26.5t-102 75.5t-68 116.5t-25 149.5zM182 1032q0 -135 67.5 -218t178.5 -83t179.5 83t68.5 218 q0 68 -18.5 123t-50.5 95t-78 61.5t-101 21.5q-111 0 -178.5 -83t-67.5 -218zM340 23l1032 1376l58 -45l-1033 -1377zM1014 344q0 80 24.5 147.5t67.5 116.5t103.5 77t131.5 28q72 0 131.5 -28t102.5 -77t67.5 -116.5t24.5 -147.5q0 -82 -24.5 -149.5t-67.5 -116.5 t-102.5 -76t-131.5 -27t-132 27t-103 76t-67.5 116.5t-24.5 149.5zM1094 344q0 -135 68.5 -218t178.5 -83q111 0 178.5 83t67.5 218t-67.5 218t-178.5 83q-55 0 -101 -21.5t-78 -61.5t-50 -95t-18 -123z" />
<glyph unicode="&#x26;" horiz-adv-x="1296" d="M100 367q0 125 85 227t251 190q-84 86 -136 161t-52 167q0 63 23.5 116.5t66.5 91.5t102.5 59.5t130.5 21.5q68 0 124.5 -20.5t97.5 -56.5t63.5 -85t22.5 -109q0 -51 -16.5 -96t-53.5 -88t-96.5 -87t-145.5 -93l406 -436q90 150 90 332h86q0 -109 -29.5 -210.5 t-85.5 -187.5l244 -264h-115l-190 205q-90 -111 -200.5 -170.5t-229.5 -59.5q-96 0 -178 29t-140.5 81t-91.5 124t-33 158zM193 373q0 -70 26.5 -128.5t74.5 -100.5t112.5 -65.5t142.5 -23.5q104 0 199.5 54.5t169.5 154.5l-433 467q-141 -80 -216.5 -167t-75.5 -191z M338 1110q0 -76 50 -142.5t128 -144.5q150 82 211 150.5t61 150.5q0 86 -60.5 141.5t-156.5 55.5q-104 0 -168.5 -58.5t-64.5 -152.5z" />
<glyph unicode="'" horiz-adv-x="417" d="M160 1376h96l-8 -422h-78z" />
<glyph unicode="(" horiz-adv-x="673" d="M178 590q0 252 88 477t256 410l70 -52q-160 -170 -241 -384t-81 -451q0 -238 81 -452t241 -384l-70 -51q-168 182 -256 407.5t-88 479.5z" />
<glyph unicode=")" horiz-adv-x="673" d="M80 -246q160 170 240.5 384t80.5 452t-80.5 451.5t-240.5 383.5l72 52q168 -182 255 -407.5t87 -479.5q0 -252 -87.5 -477.5t-254.5 -409.5z" />
<glyph unicode="*" horiz-adv-x="995" d="M100 1061l25 72l336 -111v354h74v-354l335 111l25 -72l-340 -111l209 -286l-59 -43l-207 288l-209 -288l-60 43l209 286z" />
<glyph unicode="+" d="M119 547v86h428v428h86v-428h428v-86h-428v-428h-86v428h-428z" />
<glyph unicode="," horiz-adv-x="483" d="M98 -281q152 115 152 269q-37 -4 -63.5 18t-26.5 57t22.5 58.5t59.5 23.5q41 0 66.5 -33.5t25.5 -93.5q0 -104 -52.5 -193t-148.5 -153z" />
<glyph unicode="-" horiz-adv-x="655" d="M59 467v80h537v-80h-537z" />
<glyph unicode="." horiz-adv-x="483" d="M160 63q0 35 23.5 58.5t58.5 23.5t58.5 -23.5t23.5 -58.5t-24 -58t-58 -23q-35 0 -58.5 23t-23.5 58z" />
<glyph unicode="/" horiz-adv-x="786" d="M41 -252l623 1710l81 -26l-622 -1711z" />
<glyph unicode="0" d="M100 688q0 162 35 294t98.5 225t153.5 143.5t203 50.5t203 -50.5t153.5 -143.5t98 -225t34.5 -294q0 -164 -34.5 -295t-98 -224t-154 -143.5t-202.5 -50.5q-113 0 -203 50.5t-153.5 143.5t-98.5 224t-35 295zM193 688q0 -143 28.5 -259t80.5 -197.5t125 -127t163 -45.5 t162.5 45.5t125 127t81 197.5t28.5 259t-28.5 260t-81 199t-125 126t-162.5 44t-163 -44t-125 -126t-80.5 -199t-28.5 -260z" />
<glyph unicode="1" d="M233 1124l435 252h82v-1376h-97v1274l-383 -221z" />
<glyph unicode="2" d="M123 0v66l569 569q88 86 132 178t44 184q0 70 -23.5 129.5t-66.5 100.5t-103.5 64.5t-131.5 23.5q-92 0 -179.5 -33t-179.5 -90l-41 76q104 63 207 98t207 35q90 0 165 -29t129 -81t84 -124.5t30 -158.5q0 -109 -49.5 -214.5t-143.5 -199.5l-512 -510h721v-84h-858z" />
<glyph unicode="3" d="M127 76l33 78q104 -47 201.5 -71t185.5 -24q74 0 136 21.5t107.5 61.5t70 95.5t24.5 120.5q0 68 -29 124.5t-82 97.5t-127 63.5t-162 22.5h-73v77h73q82 0 149.5 21.5t117 60.5t76 92.5t26.5 116.5t-22.5 115.5t-62.5 89.5t-96.5 57.5t-123.5 20.5q-84 0 -171 -19.5 t-185 -66.5l-33 78q106 49 206.5 70.5t192.5 21.5q86 0 159 -26.5t125 -74t80.5 -113t28.5 -145.5q0 -123 -74.5 -212t-199.5 -121q141 -37 224 -133.5t83 -225.5q0 -84 -31.5 -152.5t-88 -117.5t-134.5 -77t-172 -28q-98 0 -208.5 24t-223.5 77z" />
<glyph unicode="4" d="M74 342v72l686 962h92v-954h227v-80h-227v-342h-92v342h-686zM174 422h586v821z" />
<glyph unicode="5" d="M145 92l41 76q90 -53 179.5 -81t179.5 -28q170 0 270 92.5t100 243.5q0 156 -99 247t-279 91q-135 0 -306 -39v682h732v-84h-644v-510q63 14 125 20.5t115 6.5q104 0 188 -29.5t142.5 -84t90.5 -131.5t32 -171q0 -92 -33 -169t-93.5 -132t-145.5 -86t-189 -31t-206.5 31 t-199.5 86z" />
<glyph unicode="6" d="M143 598q0 193 36 342.5t104.5 251.5t170 155.5t234.5 53.5q78 0 158 -18.5t158 -59.5l-35 -76q-70 35 -139.5 53.5t-139.5 18.5q-223 0 -340 -179t-112 -530q39 115 147.5 185.5t249.5 70.5q96 0 176 -31.5t136.5 -90t88 -138.5t31.5 -178q0 -96 -34 -179t-94 -143.5 t-141 -95.5t-175 -35q-221 0 -350.5 159t-129.5 464zM254 461q0 -90 26.5 -164t76 -127t117 -83t147.5 -30q74 0 139 29t112.5 78t75 116.5t27.5 145.5q0 80 -25.5 146.5t-72 113.5t-112 72.5t-144.5 25.5q-78 0 -144.5 -24.5t-116 -68.5t-78 -103t-28.5 -127z" />
<glyph unicode="7" d="M150 1292v84h835v-65l-567 -1311h-103l559 1292h-724z" />
<glyph unicode="8" d="M127 344q0 135 90 231.5t256 129.5q-68 14 -125 44.5t-99 75.5t-65.5 101.5t-23.5 122.5q0 76 31.5 140t89 111.5t136.5 74t173 26.5t173 -26.5t136 -74t89 -112t32 -139.5q0 -66 -23.5 -122.5t-65.5 -101.5t-99.5 -75.5t-124.5 -44.5q166 -33 256 -129.5t90 -231.5 q0 -82 -34 -149.5t-95.5 -116.5t-146.5 -76t-187 -27t-187.5 27t-146.5 76t-95 116.5t-34 149.5zM225 350q0 -66 27 -120t75 -93t115.5 -60.5t147.5 -21.5t147.5 21.5t115.5 60.5t74.5 93.5t26.5 119.5q0 129 -98 210t-266 106q-168 -25 -266.5 -106t-98.5 -210zM254 1042 q0 -63 25.5 -113t70.5 -88t106.5 -63t133.5 -35q72 10 133 35t106 63t71 88t26 113q0 59 -26 110.5t-71 88.5t-106 58.5t-133 21.5t-133.5 -21.5t-106.5 -58.5t-70.5 -88t-25.5 -111z" />
<glyph unicode="9" d="M113 948q0 96 33.5 179t94 143.5t141.5 95.5t175 35q221 0 350 -159t129 -464q0 -385 -140 -594t-404 -209q-78 0 -158 18.5t-158 59.5l35 76q70 -35 139.5 -53.5t138.5 -18.5q223 0 340 179.5t113 529.5q-39 -115 -147.5 -185.5t-249.5 -70.5q-96 0 -176 31.5t-137.5 90 t-88 138.5t-30.5 178zM205 950q0 -80 25.5 -146.5t71.5 -113.5t111.5 -72.5t145.5 -25.5q76 0 143.5 24.5t116.5 68.5t78 103t29 127q0 88 -27 163t-76 128.5t-116.5 83t-147.5 29.5q-74 0 -139.5 -28.5t-112.5 -78t-74.5 -117t-27.5 -145.5z" />
<glyph unicode=":" horiz-adv-x="516" d="M176 63q0 35 23.5 58.5t58.5 23.5t58.5 -23.5t23.5 -58.5t-24 -58t-58 -23q-35 0 -58.5 23t-23.5 58zM176 923q0 35 23.5 58.5t58.5 23.5t58.5 -23.5t23.5 -58.5t-24 -58t-58 -23q-35 0 -58.5 23t-23.5 58z" />
<glyph unicode=";" horiz-adv-x="516" d="M114 -281q152 115 152 269q-37 -4 -63.5 18t-26.5 57t22.5 58.5t59.5 23.5q41 0 66.5 -33.5t25.5 -93.5q0 -104 -52.5 -193t-148.5 -153zM176 923q0 35 23.5 58.5t58.5 23.5t58.5 -23.5t23.5 -58.5t-24 -58t-58 -23q-35 0 -58.5 23t-23.5 58z" />
<glyph unicode="&#x3c;" d="M119 547v86l915 426l35 -82l-833 -387l833 -387l-35 -82z" />
<glyph unicode="=" d="M119 338v86h942v-86h-942zM119 756v86h942v-86h-942z" />
<glyph unicode="&#x3e;" d="M111 203l833 387l-833 387l34 82l916 -426v-86l-916 -426z" />
<glyph unicode="?" horiz-adv-x="929" d="M74 1276q86 61 180 93t190 32q84 0 154 -26.5t120 -75t77.5 -114t27.5 -143.5q0 -74 -25.5 -132t-63.5 -108t-83 -93t-84 -87t-65.5 -91.5t-28.5 -102.5v-16h-82v22q0 63 24.5 115.5t61.5 97.5t81 87t81 87t61.5 96.5t24.5 114.5q0 61 -21.5 113.5t-60.5 90.5t-92 58.5 t-117 20.5q-84 0 -160.5 -29t-158.5 -84zM354 61q0 35 21.5 54.5t56.5 19.5t55.5 -19.5t20.5 -54.5t-20.5 -57t-55.5 -22t-56.5 22t-21.5 57z" />
<glyph unicode="@" horiz-adv-x="1978" d="M117 494q0 201 66.5 368.5t185 288.5t283.5 188.5t362 67.5q184 0 339.5 -60.5t268.5 -168t176.5 -256t63.5 -326.5q0 -123 -27 -223.5t-76 -173t-117.5 -112.5t-150.5 -40q-88 0 -145.5 51.5t-67.5 132.5q-47 -86 -126 -135t-187 -49q-84 0 -155 34t-122 93t-79.5 141 t-28.5 179q0 98 28.5 180t79.5 141t122 92t155 33q104 0 180 -46t119 -130l10 156h82v-631q0 -74 38 -119t105 -45q61 0 112.5 34t88.5 94t56.5 146t19.5 191q0 162 -57.5 298t-159 233.5t-240.5 151.5t-305 54q-178 0 -327.5 -61.5t-257 -172t-167 -263t-59.5 -336.5 q0 -182 59.5 -336t167 -264.5t257 -172t327.5 -61.5q238 0 510 152l41 -70q-147 -78 -284.5 -119t-266.5 -41q-197 0 -362 67.5t-283.5 188.5t-185 288t-66.5 368zM676 494q0 -80 22.5 -146.5t63.5 -116t97 -76t124 -26.5q63 0 114.5 22.5t87.5 61.5t55.5 93t19.5 116v145 q0 63 -19.5 116.5t-55.5 92.5t-87 61.5t-115 22.5q-68 0 -124 -26.5t-97 -75.5t-63.5 -116.5t-22.5 -147.5z" />
<glyph unicode="A" horiz-adv-x="1357" d="M61 0l570 1376h96l569 -1376h-104l-168 410h-690l-168 -410h-105zM365 489h628l-313 766z" />
<glyph unicode="B" horiz-adv-x="1323" d="M225 0v1376h529q84 0 155.5 -25.5t122.5 -72.5t80 -111.5t29 -140.5q0 -109 -59.5 -192.5t-163.5 -122.5q129 -33 200.5 -125t71.5 -219q0 -84 -31 -152t-84 -115t-127 -73.5t-162 -26.5h-561zM324 80h450q70 0 128.5 21.5t99 60.5t64.5 93t24 120q0 63 -24 117.5 t-64.5 93.5t-99 60.5t-128.5 21.5h-450v-588zM324 741h419q66 0 120.5 20.5t94 57.5t62 87t22.5 112q0 61 -22.5 112.5t-62 88t-94 57t-120.5 20.5h-419v-555z" />
<glyph unicode="C" horiz-adv-x="1316" d="M117 688q0 158 48 289t135 225t208 146.5t266 52.5q113 0 226.5 -37t220.5 -111l-45 -71q-92 66 -191.5 99.5t-200.5 33.5q-127 0 -230 -45t-178 -128t-116 -199t-41 -255t41 -255t116 -198.5t178 -128t230 -45.5q100 0 199.5 34t192.5 100l45 -72q-106 -74 -220 -111 t-227 -37q-145 0 -266 52.5t-208 146.5t-135 225t-48 289z" />
<glyph unicode="D" horiz-adv-x="1456" d="M225 0v1376h422q154 0 282 -50t219 -140t141 -217t50 -281q0 -152 -50 -278.5t-141 -218t-219 -141.5t-282 -50h-422zM326 84h311q133 0 243.5 44t189.5 124t123 191.5t44 244.5t-44 244.5t-123 191.5t-189.5 124t-243.5 44h-311v-1208z" />
<glyph unicode="E" horiz-adv-x="1218" d="M225 0v1376h842v-82h-741v-549h675v-81h-675v-582h774v-82h-875z" />
<glyph unicode="F" horiz-adv-x="1185" d="M225 0v1376h842v-84h-741v-596h675v-84h-675v-612h-101z" />
<glyph unicode="G" horiz-adv-x="1423" d="M117 688q0 156 49 287t138 226t213 147.5t274 52.5q117 0 231.5 -34t230.5 -99l-41 -74q-106 59 -208.5 91t-202.5 32q-129 0 -237.5 -46t-185.5 -129t-120 -199t-43 -255t44 -254t123 -198.5t188.5 -130t242.5 -46.5q195 0 365 80v465h-371v80h465v-600 q-115 -53 -230.5 -81t-234.5 -28q-154 0 -281 52.5t-218 147.5t-141 225t-50 288z" />
<glyph unicode="H" horiz-adv-x="1554" d="M225 0v1376h101v-631h903v631h100v-1376h-100v664h-903v-664h-101z" />
<glyph unicode="I" horiz-adv-x="550" d="M225 0v1376h101v-1376h-101z" />
<glyph unicode="J" horiz-adv-x="897" d="M57 10l17 82q113 -31 217 -31q61 0 112.5 20.5t89 57.5t58 88.5t20.5 112.5v1036h101v-1042q0 -80 -27 -145.5t-75 -112.5t-114.5 -74t-146.5 -27q-66 0 -126 9.5t-126 25.5z" />
<glyph unicode="K" horiz-adv-x="1335" d="M225 0v1376h99v-774l772 774h123l-641 -643l671 -733h-125l-616 670l-184 -183v-487h-99z" />
<glyph unicode="L" horiz-adv-x="1087" d="M225 0v1376h101v-1292h702v-84h-803z" />
<glyph unicode="M" horiz-adv-x="1734" d="M225 0v1376h101l542 -733l541 733h100v-1376h-94v1235l-516 -703h-63l-517 703v-1235h-94z" />
<glyph unicode="N" horiz-adv-x="1554" d="M225 0v1376h101l909 -1235v1235h94v-1376h-100l-910 1235v-1235h-94z" />
<glyph unicode="O" horiz-adv-x="1554" d="M117 688q0 156 48 287t136 226t210 147.5t267 52.5t266 -52.5t209 -147.5t136.5 -226t48.5 -287q0 -158 -48.5 -288t-136.5 -225t-208.5 -147.5t-266.5 -52.5q-145 0 -267 52.5t-210 147.5t-136 225t-48 288zM219 688q0 -137 41 -253t116 -198.5t177 -130t225 -47.5 t225.5 47.5t176 130t114.5 198.5t41 253t-41 253t-114.5 199t-176 130t-225.5 47t-225 -47t-177 -130t-116 -199t-41 -253z" />
<glyph unicode="P" horiz-adv-x="1257" d="M225 0v1376h488q98 0 179 -30.5t140.5 -86t92 -131t32.5 -167.5t-32.5 -168t-92 -131.5t-140.5 -86t-179 -30.5h-389v-545h-99zM324 627h378q78 0 142.5 24.5t112 68.5t74 105.5t26.5 135.5t-26.5 134t-74 104t-112 68.5t-142.5 24.5h-378v-665z" />
<glyph unicode="Q" horiz-adv-x="1554" d="M117 688q0 156 48 287t136 226t210 147.5t267 52.5t266 -52.5t209 -147.5t136.5 -226t48.5 -287q0 -217 -89 -379t-243 -248l360 -264l-53 -65l-393 288q-55 -23 -115.5 -34t-126.5 -11q-145 0 -267 52.5t-210 147.5t-136 225t-48 288zM219 688q0 -137 41 -253 t116 -198.5t177 -130t225 -47.5t225.5 47.5t176 130t114.5 198.5t41 253t-41 253t-114.5 199t-176 130t-225.5 47t-225 -47t-177 -130t-116 -199t-41 -253z" />
<glyph unicode="R" horiz-adv-x="1323" d="M225 0v1376h492q94 0 172 -29.5t134 -83t88 -126t32 -160.5q0 -80 -26.5 -147.5t-74 -119t-115 -83t-149.5 -39.5l418 -588h-115l-405 578h-352v-578h-99zM324 659h381q74 0 136 23t107 64.5t70.5 100t25.5 130.5q0 70 -25.5 128t-70.5 99t-107.5 64.5t-135.5 23.5h-381 v-633z" />
<glyph unicode="S" horiz-adv-x="1175" d="M117 84l26 80q119 -47 230.5 -76t208.5 -29q86 0 155.5 20.5t118.5 56.5t75.5 87t26.5 113q0 80 -35.5 132t-94 88t-133 59.5t-153.5 47t-154 51t-133 70.5t-94 107t-36 158q0 78 34 143t95 111.5t146 72t188 25.5q195 0 420 -92l-27 -80q-213 88 -387 88 q-84 0 -151.5 -19.5t-115.5 -55.5t-75 -85t-27 -108q0 -78 36 -129.5t94.5 -86t133 -58t152.5 -47t152.5 -51.5t133 -72t94.5 -108.5t36 -160.5q0 -80 -34 -146.5t-95.5 -114.5t-148.5 -74t-191 -26q-211 0 -471 109z" />
<glyph unicode="T" horiz-adv-x="1218" d="M59 1292v84h1100v-84h-500v-1292h-100v1292h-500z" />
<glyph unicode="U" horiz-adv-x="1554" d="M209 516v860h100v-856q0 -102 35 -186t98.5 -145.5t148.5 -95.5t187 -34q100 0 186.5 34t149 95.5t97 145.5t34.5 186v856h101v-860q0 -119 -43 -218t-119 -171t-179.5 -112t-226.5 -40t-227.5 40t-180 112t-118.5 171t-43 218z" />
<glyph unicode="V" horiz-adv-x="1357" d="M61 1376h107l512 -1247l510 1247h106l-569 -1376h-96z" />
<glyph unicode="W" horiz-adv-x="2045" d="M86 1376h102l394 -1247l393 1247h98l391 -1247l394 1247h102l-442 -1376h-103l-391 1247l-393 -1247h-103z" />
<glyph unicode="X" horiz-adv-x="1374" d="M88 0l535 705l-510 671h114l461 -604l459 604h115l-510 -671l534 -705h-117l-481 637l-483 -637h-117z" />
<glyph unicode="Y" horiz-adv-x="1204" d="M45 1376h113l444 -680l442 680h115l-508 -772v-604h-100v604z" />
<glyph unicode="Z" horiz-adv-x="1273" d="M117 0v61l880 1231h-856v84h989v-61l-878 -1231h903v-84h-1038z" />
<glyph unicode="[" horiz-adv-x="673" d="M238 -268v1716h348v-84h-256v-1548h256v-84h-348z" />
<glyph unicode="\" horiz-adv-x="786" d="M41 1432l82 26l622 -1710l-81 -27z" />
<glyph unicode="]" horiz-adv-x="673" d="M86 -184h256v1548h-256v84h348v-1716h-348v84z" />
<glyph unicode="^" d="M121 455l426 921h86l426 -921l-82 -33l-387 838l-387 -838z" />
<glyph unicode="_" horiz-adv-x="983" d="M0 -221h983v-82h-983v82z" />
<glyph unicode="`" horiz-adv-x="491" d="M-18 1368l49 68l325 -226l-39 -57z" />
<glyph unicode="a" horiz-adv-x="1083" d="M102 264q0 154 119 239t330 85q57 0 116.5 -6.5t123.5 -22.5v131q0 111 -74 177.5t-193 66.5q-162 0 -331 -72l-27 74q186 78 366 78q78 0 143.5 -23.5t113 -66.5t73 -102.5t25.5 -131.5v-532q0 -47 27.5 -75t74.5 -28q14 0 29.5 2t28.5 6l10 -77q-45 -10 -88 -11 q-74 0 -121 45.5t-47 122.5v37q-49 -98 -144.5 -151.5t-216.5 -53.5q-72 0 -134 21.5t-107 60.5t-71 92.5t-26 114.5zM201 268q0 -47 19.5 -86t54 -68.5t81.5 -46t103 -16.5q74 0 135 24.5t105 69.5t68 108.5t24 139.5v99q-119 30 -225 30h-7q-170 0 -264 -66.5t-94 -187.5z " />
<glyph unicode="b" horiz-adv-x="1171" d="M178 0v1442h98v-637q53 100 143.5 154.5t207.5 54.5q96 0 177 -38t139 -107.5t91 -165t33 -209.5q0 -115 -33 -209.5t-91 -164t-139 -107.5t-177 -38q-121 0 -212 55.5t-145 157.5l-12 -188h-80zM274 406q0 -76 25 -140.5t69 -110.5t104 -72t134 -26q80 0 146.5 33 t114.5 90.5t75 137.5t27 176t-27 176t-75 138t-114.5 91t-146.5 33q-74 0 -134 -25.5t-104 -72t-69 -111t-25 -139.5v-178z" />
<glyph unicode="c" horiz-adv-x="995" d="M102 494q0 115 36 210t99.5 164.5t151.5 107.5t193 38q174 0 331 -111l-43 -69q-133 96 -278 96q-86 0 -156.5 -32t-123 -89t-81 -138t-28.5 -177t28.5 -176t81 -137.5t123 -89.5t156.5 -32q145 0 278 97l43 -72q-158 -109 -331 -109q-104 0 -192.5 38t-152 107.5 t-99.5 164t-36 209.5z" />
<glyph unicode="d" horiz-adv-x="1171" d="M102 494q0 115 33 210t91.5 164.5t140.5 107.5t178 38q117 0 207 -54.5t141 -154.5v637h98v-1442h-80l-12 188q-53 -102 -144 -157.5t-210 -55.5q-96 0 -178 38t-140.5 107.5t-91.5 164t-33 209.5zM203 494q0 -96 26.5 -176t74.5 -137.5t113.5 -90.5t145.5 -33 q74 0 135.5 26t104.5 72t67.5 110.5t24.5 140.5v178q0 76 -24.5 140t-67.5 110.5t-104.5 72t-135.5 25.5q-80 0 -145.5 -33t-113.5 -91t-74.5 -138t-26.5 -176z" />
<glyph unicode="e" horiz-adv-x="1083" d="M102 494q0 115 34 210t95.5 164.5t146.5 107.5t187 38q94 0 174 -37t136.5 -102.5t88 -157.5t31.5 -203v-41h-794q2 -92 33.5 -170t85 -133t127 -86t161.5 -31q141 0 305 86l33 -71q-92 -47 -181 -70t-167 -23q-109 0 -200 38t-156.5 107.5t-102.5 164t-37 209.5z M201 541h700q-2 88 -26.5 159.5t-68.5 124t-105.5 81t-135.5 28.5q-78 0 -142.5 -28.5t-111.5 -80t-75.5 -124t-34.5 -160.5z" />
<glyph unicode="f" horiz-adv-x="739" d="M59 909v80h217v209q0 119 76 193.5t197 74.5q94 0 182 -26l-16 -80q-41 12 -77 17t-71 5q-86 0 -139 -52t-53 -138v-203h305v-80h-305v-909h-99v909h-217z" />
<glyph unicode="g" horiz-adv-x="1171" d="M102 494q0 115 33 210t91.5 164.5t140.5 107.5t178 38q119 0 210 -55.5t144 -159.5l12 190h80v-1030q0 -90 -33.5 -165t-95 -129t-145.5 -85t-185 -31q-80 0 -173 20.5t-193 63.5l31 78q92 -41 176 -60.5t153 -19.5q80 0 147.5 23.5t117 66.5t76 102.5t26.5 131.5v229 q-51 -100 -141 -154.5t-207 -54.5q-96 0 -178 38t-140.5 107.5t-91.5 164t-33 209.5zM203 494q0 -96 26.5 -176t74.5 -137.5t113.5 -90.5t145.5 -33q74 0 135.5 26t104.5 72t67.5 110.5t24.5 140.5v178q0 76 -24.5 140t-67.5 110.5t-104.5 72t-135.5 25.5q-80 0 -145.5 -33 t-113.5 -91t-74.5 -138t-26.5 -176z" />
<glyph unicode="h" horiz-adv-x="1171" d="M178 0v1442h98v-654q49 106 144.5 166t218.5 60q80 0 147.5 -26.5t116.5 -75t77 -114t28 -145.5v-653h-99v641q0 63 -21.5 116.5t-60.5 91.5t-93 59.5t-118 21.5q-74 0 -135 -26.5t-107 -74t-72 -115t-26 -147.5v-567h-98z" />
<glyph unicode="i" horiz-adv-x="454" d="M152 1305q0 35 20.5 56t54.5 21q35 0 56.5 -21.5t21.5 -55.5q0 -35 -21.5 -55.5t-56.5 -20.5t-55 20.5t-20 55.5zM178 0v989h98v-989h-98z" />
<glyph unicode="j" horiz-adv-x="471" d="M-162 -424l17 80q41 -12 76.5 -17.5t70.5 -5.5q86 0 139.5 52.5t53.5 138.5v1165h98v-1171q0 -119 -76 -194t-197 -75q-90 0 -182 27zM168 1305q0 35 20.5 56t55.5 21t56.5 -21.5t21.5 -55.5q0 -35 -21.5 -55.5t-56.5 -20.5t-55.5 20.5t-20.5 55.5z" />
<glyph unicode="k" horiz-adv-x="1011" d="M178 0v1442h96v-987l533 534h119l-461 -463l477 -526h-119l-424 467l-125 -125v-342h-96z" />
<glyph unicode="l" horiz-adv-x="552" d="M178 184v1258h98v-1249q0 -63 37 -98.5t99 -35.5q20 0 45.5 3.5t54.5 11.5l14 -80q-74 -18 -133 -19q-98 0 -156.5 55.5t-58.5 153.5z" />
<glyph unicode="m" horiz-adv-x="1837" d="M178 0v989h80l12 -198q47 106 140.5 164.5t212.5 58.5q123 0 212 -64.5t121 -175.5q49 113 145.5 176.5t219.5 63.5q78 0 142.5 -25.5t111.5 -72t72.5 -110t25.5 -136.5v-670h-96v657q0 59 -20.5 109.5t-57.5 86.5t-88 56.5t-113 20.5q-72 0 -131 -25.5t-102 -72 t-66.5 -110t-23.5 -138.5v-584h-98v657q0 59 -20.5 109.5t-57.5 86.5t-87 56.5t-112 20.5q-72 0 -131 -25.5t-102 -72t-67 -110t-24 -138.5v-584h-98z" />
<glyph unicode="n" horiz-adv-x="1171" d="M178 0v989h80l12 -207q49 111 147.5 171.5t221.5 60.5q80 0 147.5 -26.5t116.5 -75t77 -114t28 -145.5v-653h-99v641q0 63 -21.5 116.5t-60.5 91.5t-93 59.5t-118 21.5q-74 0 -135 -26.5t-107 -74t-72 -115t-26 -147.5v-567h-98z" />
<glyph unicode="o" horiz-adv-x="1171" d="M102 494q0 115 36 210t100.5 164.5t152.5 107.5t195 38q106 0 194 -38t151.5 -107.5t99.5 -165t36 -209.5q0 -115 -36 -209.5t-99.5 -164t-151.5 -107.5t-194 -38t-194.5 38t-153 107.5t-100.5 164t-36 209.5zM203 494q0 -96 27.5 -176t78.5 -138.5t122 -90.5t155 -32 t154.5 32t120.5 90.5t79 138t29 176.5q0 96 -29 177t-79 139t-120.5 90t-154.5 32t-155 -32t-122 -90t-78.5 -139t-27.5 -177z" />
<glyph unicode="p" horiz-adv-x="1171" d="M178 -426v1415h80l12 -190q53 104 144.5 159.5t212.5 55.5q96 0 177 -38t139 -107.5t91 -165t33 -209.5q0 -115 -33 -209.5t-91 -164t-139 -107.5t-177 -38q-117 0 -207 54.5t-144 154.5v-610h-98zM274 406q0 -76 25 -140.5t69 -110.5t104 -72t134 -26q80 0 146.5 33 t114.5 90.5t75 137.5t27 176t-27 176t-75 138t-114.5 91t-146.5 33q-74 0 -134 -25.5t-104 -72t-69 -111t-25 -139.5v-178z" />
<glyph unicode="q" horiz-adv-x="1171" d="M102 494q0 115 33 210t91.5 164.5t140.5 107.5t178 38q119 0 210 -55.5t144 -159.5l12 190h80v-1415h-98v610q-51 -100 -141 -154.5t-207 -54.5q-96 0 -178 38t-140.5 107.5t-91.5 164t-33 209.5zM203 494q0 -96 26.5 -176t74.5 -137.5t113.5 -90.5t145.5 -33 q74 0 135.5 26t104.5 72t67.5 110.5t24.5 140.5v178q0 76 -24.5 140t-67.5 110.5t-104.5 72t-135.5 25.5q-80 0 -145.5 -33t-113.5 -91t-74.5 -138t-26.5 -176z" />
<glyph unicode="r" horiz-adv-x="761" d="M178 0v989h80l12 -209q35 104 120 165t200 61q61 0 127 -19l-15 -82q-61 16 -118 17q-68 0 -125.5 -27t-97 -76t-62.5 -117.5t-23 -150.5v-551h-98z" />
<glyph unicode="s" horiz-adv-x="903" d="M102 51l25 76q172 -74 317 -74q117 0 187.5 53.5t70.5 139.5q0 74 -44 114.5t-109.5 66.5t-142 45.5t-142 51t-109.5 84t-44 144.5q0 117 94 189.5t246 72.5q150 0 315 -68l-25 -76q-147 63 -284 64q-111 0 -180.5 -50t-69.5 -132q0 -72 44 -111t109.5 -64.5t142.5 -45 t142.5 -52.5t109.5 -86t44 -147q0 -59 -25.5 -109.5t-72 -86.5t-110 -55.5t-140.5 -19.5q-78 0 -166 18.5t-183 57.5z" />
<glyph unicode="t" horiz-adv-x="804" d="M59 909v80h217v295h99v-295h338v-80h-338v-659q0 -86 53 -138.5t139 -52.5q35 0 71 5.5t77 17.5l16 -80q-88 -27 -182 -27q-121 0 -197 75t-76 194v665h-217z" />
<glyph unicode="u" horiz-adv-x="1171" d="M162 336v653h98v-641q0 -63 21.5 -116.5t61.5 -91.5t93 -59.5t119 -21.5q74 0 135.5 27t106.5 74t70.5 114.5t25.5 147.5v567h98v-989h-80l-12 205q-47 -111 -145.5 -170.5t-221.5 -59.5q-80 0 -148.5 27t-117.5 75t-76.5 113.5t-27.5 145.5z" />
<glyph unicode="v" horiz-adv-x="1040" d="M63 989h103l354 -872l352 872h103l-410 -989h-92z" />
<glyph unicode="w" horiz-adv-x="1564" d="M80 989h100l277 -868l276 868h96l277 -868l278 868h99l-326 -989h-98l-277 868l-276 -868h-100z" />
<glyph unicode="x" horiz-adv-x="1040" d="M74 0l383 506l-367 483h113l317 -418l316 418h112l-366 -483l383 -506h-113l-332 440l-332 -440h-114z" />
<glyph unicode="y" horiz-adv-x="1040" d="M63 989h103l360 -872l346 872h103l-471 -1161q-59 -147 -129 -213t-180 -66q-51 0 -127 17l16 82q29 -8 55.5 -11.5t48.5 -3.5q80 0 130.5 50.5t97.5 164.5l63 158z" />
<glyph unicode="z" horiz-adv-x="968" d="M102 0v59l617 850h-600v80h729v-59l-615 -850h631v-80h-762z" />
<glyph unicode="{" horiz-adv-x="673" d="M80 549v82h33q82 0 134 54t52 140q0 82 -15.5 172t-15.5 179q0 59 20.5 109t56.5 86t85 56.5t107 20.5h49v-84h-33q-82 0 -136.5 -55.5t-54.5 -147.5q0 -80 13.5 -168t13.5 -174q0 -80 -38 -142.5t-111 -86.5q74 -25 111.5 -87.5t37.5 -142.5q0 -86 -13.5 -173 t-13.5 -169q0 -92 54.5 -147t136.5 -55h33v-84h-49q-57 0 -106.5 20.5t-85.5 56t-56.5 86t-20.5 109.5q0 88 15.5 176t15.5 174q0 84 -51 139.5t-135 55.5h-33z" />
<glyph unicode="|" horiz-adv-x="491" d="M203 -459v1966h86v-1966h-86z" />
<glyph unicode="}" horiz-adv-x="673" d="M86 -184h33q84 0 138 55t54 147q0 80 -14 168t-14 174q0 80 38.5 142.5t112.5 87.5q-74 25 -112.5 87t-38.5 142q0 86 14 173t14 169q0 92 -54 147.5t-138 55.5h-33v84h51q57 0 106.5 -20.5t85.5 -56.5t56.5 -86t20.5 -109q0 -88 -15.5 -176.5t-15.5 -174.5 q0 -84 51 -139t133 -55h33v-82h-33q-80 0 -132 -54.5t-52 -140.5q0 -82 15.5 -172t15.5 -178q0 -59 -20.5 -109.5t-56.5 -86t-85 -56t-107 -20.5h-51v84z" />
<glyph unicode="~" d="M106 573q125 109 281 109q63 0 112.5 -15.5t94.5 -34t92 -33.5t107 -15q129 0 229 92l51 -70q-125 -109 -280 -108q-63 0 -112.5 15t-94.5 33.5t-92.5 34t-106.5 15.5q-129 0 -229 -92z" />
<glyph unicode="&#xa1;" horiz-adv-x="516" d="M180 930q0 35 21.5 56.5t56.5 21.5t55.5 -21.5t20.5 -56.5t-20.5 -56.5t-55.5 -21.5t-56.5 21.5t-21.5 56.5zM207 -387l10 965h82l10 -965h-102z" />
<glyph unicode="&#xa2;" d="M195 688q0 106 30.5 195.5t86 157t132 109.5t168.5 52v305h86v-303q160 -4 310 -106l-45 -72q-66 47 -135.5 72.5t-141.5 25.5q-86 0 -158.5 -31.5t-124 -90t-80 -138.5t-28.5 -176t28.5 -176t80 -138.5t124 -90t158.5 -31.5q72 0 141.5 25.5t135.5 72.5l45 -71 q-147 -102 -310 -109v-301h-86v305q-92 10 -168.5 52t-132 109.5t-86 157t-30.5 195.5z" />
<glyph unicode="&#xa3;" d="M152 0v82h217v582h-185v81h185v299q0 80 28.5 145.5t78.5 113t121 73t157 25.5q129 0 282 -60l-26 -77q-129 53 -242 53q-133 0 -215 -77t-82 -202v-293h406v-81h-406v-582h590v-82h-909z" />
<glyph unicode="&#xa4;" d="M135 293l166 168q-76 92 -76 227t76 227l-166 168l60 60l165 -168q90 78 230 78q137 0 227 -78l168 168l59 -60l-167 -168q78 -90 77 -227q0 -70 -20.5 -126t-56.5 -101l167 -168l-59 -60l-168 166q-92 -74 -227 -73q-135 0 -228 73l-167 -166zM305 688 q0 -61 21.5 -113.5t59.5 -90.5t90 -58t114 -20q61 0 113.5 20t90 58t59 90.5t21.5 113.5t-21.5 113.5t-59 90.5t-90 59.5t-113.5 21.5t-113.5 -21.5t-90.5 -59.5t-59.5 -90.5t-21.5 -113.5z" />
<glyph unicode="&#xa5;" d="M82 1376h111l397 -620l397 620h111l-430 -657h327v-74h-354v-227h354v-74h-354v-344h-102v344h-355v74h355v227h-355v74h328z" />
<glyph unicode="&#xa6;" horiz-adv-x="491" d="M203 -360v786h86v-786h-86zM203 623v786h86v-786h-86z" />
<glyph unicode="&#xa7;" horiz-adv-x="1067" d="M109 -262l24 80q104 -41 199.5 -63.5t177.5 -22.5q145 0 231 61.5t86 171.5q0 88 -52 138.5t-132 81t-171 55t-171 62.5t-132 100.5t-52 170.5q0 88 48 157t140 104q-70 37 -112.5 98.5t-42.5 159.5q0 70 28.5 126t81.5 97t126 63.5t163 22.5q170 0 373 -84l-27 -80 q-92 39 -177 59.5t-163 20.5q-141 0 -224 -61.5t-83 -163.5q0 -66 30.5 -109t81 -71.5t114 -49t130 -40t130 -44t113.5 -62.5t80.5 -94.5t30.5 -138.5q0 -88 -46 -155.5t-132 -106.5q63 -39 104.5 -100.5t41.5 -155.5q0 -74 -30 -132t-83 -99t-129 -63.5t-168 -22.5 q-186 0 -407 90zM215 578q0 -84 46 -133.5t115.5 -80t152.5 -51t157 -51.5q80 29 127 85t47 132q0 82 -44 131t-110.5 80t-146.5 52.5t-153 48.5q-88 -23 -139.5 -79t-51.5 -134z" />
<glyph unicode="&#xa8;" horiz-adv-x="491" d="M-33 1305q0 33 20.5 52t53.5 19t52.5 -19.5t19.5 -51.5q0 -33 -19.5 -52.5t-52.5 -19.5t-53.5 19.5t-20.5 52.5zM379 1305q0 33 19.5 52t52.5 19t53 -19.5t20 -51.5q0 -33 -20.5 -52.5t-52.5 -19.5q-33 0 -52.5 19.5t-19.5 52.5z" />
<glyph unicode="&#xa9;" horiz-adv-x="1703" d="M98 688q0 166 55.5 304t156 238.5t238.5 156t304 55.5t304 -55.5t238.5 -156t156 -238.5t55.5 -304t-55.5 -304t-156 -238.5t-238.5 -156t-304 -55.5t-304 55.5t-238.5 156t-156 238.5t-55.5 304zM160 688q0 -152 51 -278.5t143 -219t219 -143.5t279 -51t278.5 51 t219 143.5t143.5 219.5t51 278q0 152 -51 279t-143.5 219t-219 143t-278.5 51t-279 -51t-219 -143t-143 -219t-51 -279zM463 688q0 98 29.5 179t85 139.5t131 91t168.5 32.5q70 0 141.5 -22.5t138.5 -69.5l-39 -57q-111 80 -233 80q-76 0 -138.5 -27.5t-107.5 -77 t-69.5 -118t-24.5 -150.5q0 -84 24.5 -152.5t69.5 -117.5t107.5 -76t138.5 -27q123 0 233 80l39 -57q-68 -47 -139.5 -69.5t-140.5 -22.5q-92 0 -168 32.5t-131.5 91t-85 139.5t-29.5 179z" />
<glyph unicode="&#xaa;" horiz-adv-x="774" d="M59 489v64h656v-64h-656zM86 899q0 102 80 158.5t219 56.5q37 0 77 -5t81 -13v71q0 76 -48.5 121t-125.5 45q-102 0 -222 -49l-20 59q127 51 246 52q109 0 177 -62.5t68 -167.5v-334q0 -63 62 -63q10 0 20.5 1t20.5 3l6 -61q-29 -6 -63 -6q-53 0 -84 31.5t-33 86.5 q-37 -57 -97.5 -87.5t-136.5 -30.5q-98 0 -162.5 54t-64.5 140zM164 901q0 -59 47 -97t115 -38q94 0 155.5 58.5t61.5 150.5v67q-41 8 -80 12.5t-74 4.5q-106 0 -165.5 -40t-59.5 -118z" />
<glyph unicode="&#xab;" horiz-adv-x="1042" d="M63 481v51l404 449l59 -49l-364 -426l364 -424l-59 -49zM491 481v51l404 449l59 -49l-364 -426l364 -424l-59 -49z" />
<glyph unicode="&#xac;" d="M119 547v86h942v-514h-86v428h-856z" />
<glyph unicode="&#xad;" horiz-adv-x="655" d="M112 467v80h537v-80h-537z" />
<glyph unicode="&#xae;" horiz-adv-x="1703" d="M98 688q0 166 55.5 304t156 238.5t238.5 156t304 55.5t304 -55.5t238.5 -156t156 -238.5t55.5 -304t-55.5 -304t-156 -238.5t-238.5 -156t-304 -55.5t-304 55.5t-238.5 156t-156 238.5t-55.5 304zM160 688q0 -152 51 -278.5t143 -219t219 -143.5t279 -51t278.5 51 t219 143.5t143.5 219.5t51 278q0 152 -51 279t-143.5 219t-219 143t-278.5 51t-279 -51t-219 -143t-143 -219t-51 -279zM586 262v852h313q57 0 107.5 -18.5t86 -51t56 -78.5t20.5 -102q0 -100 -61 -166.5t-160 -76.5l250 -359h-90l-236 350h-210v-350h-76zM662 676h229 q90 0 145.5 50t55.5 136q0 84 -55.5 135.5t-145.5 51.5h-229v-373z" />
<glyph unicode="&#xaf;" horiz-adv-x="491" d="M-45 1268v73h582v-73h-582z" />
<glyph unicode="&#xb0;" horiz-adv-x="667" d="M104 1165q0 100 63.5 165t166.5 65q100 0 164.5 -64.5t64.5 -165.5q0 -102 -64.5 -165.5t-164.5 -63.5q-102 0 -166 63.5t-64 165.5zM168 1165q0 -74 46 -120t120 -46t120 46.5t46 119.5q0 72 -46 119t-120 47t-120 -47t-46 -119z" />
<glyph unicode="&#xb1;" d="M119 0v86h942v-86h-942zM119 686v86h428v428h86v-428h428v-86h-428v-428h-86v428h-428z" />
<glyph unicode="&#xb2;" horiz-adv-x="696" d="M53 786v52l346 348q104 100 105 211q0 86 -51.5 137t-137.5 51q-55 0 -109 -19.5t-110 -54.5l-35 60q137 84 265 84q115 0 185.5 -68.5t70.5 -179.5q0 -137 -119 -254l-297 -299h428v-68h-541z" />
<glyph unicode="&#xb3;" horiz-adv-x="696" d="M59 836l31 61q61 -33 117.5 -47t109.5 -14q90 0 144.5 49t54.5 127q0 80 -64.5 130t-168.5 50h-52v61h52q96 0 155.5 47.5t59.5 122.5q0 74 -49.5 120t-131.5 46q-47 0 -101 -13t-114 -42l-28 61q68 33 131 46.5t123 13.5q111 0 179 -63.5t68 -161.5q0 -74 -43 -129.5 t-114 -75.5q80 -23 129 -82.5t49 -136.5q0 -104 -73.5 -170t-194.5 -66q-61 0 -129 15.5t-140 50.5z" />
<glyph unicode="&#xb4;" horiz-adv-x="491" d="M139 1210l328 226l49 -68l-336 -215z" />
<glyph unicode="&#xb5;" horiz-adv-x="1220" d="M178 -426v1415h98v-641q0 -66 21.5 -118t61.5 -91t93.5 -59.5t118.5 -20.5q74 0 135.5 27t106.5 74t70.5 114.5t25.5 147.5v567h99v-829q0 -47 26.5 -74t71.5 -27q29 0 57 7l13 -80q-45 -10 -86 -11q-78 0 -126.5 45.5t-48.5 122.5v43q-47 -98 -138 -154.5t-208 -56.5 q-98 0 -175 37t-118 111v-549h-98z" />
<glyph unicode="&#xb6;" horiz-adv-x="1171" d="M100 969q0 88 33 163.5t92.5 129t140 84t177.5 30.5h403v-1704h-86v1618h-223v-729h-94q-96 0 -177 30t-140.5 84t-92.5 129t-33 165z" />
<glyph unicode="&#xb7;" horiz-adv-x="483" d="M160 505q0 35 23.5 58.5t58.5 23.5t58.5 -23.5t23.5 -58.5t-24 -58t-58 -23q-35 0 -58.5 23t-23.5 58z" />
<glyph unicode="&#xb8;" horiz-adv-x="491" d="M47 -418l23 64q80 -29 145 -29q57 0 95 27.5t38 74.5q0 45 -39 73t-98 28h-18l32 180h74l-23 -131q66 -6 110 -51t44 -107q0 -72 -58.5 -117t-148.5 -45q-41 0 -86 8.5t-90 24.5z" />
<glyph unicode="&#xb9;" horiz-adv-x="544" d="M43 1481l270 157h66v-852h-78v770l-227 -131z" />
<glyph unicode="&#xba;" horiz-adv-x="823" d="M86 1051q0 76 24.5 139t67.5 108t102.5 71t131.5 26t131 -26t102 -71t67.5 -108.5t24.5 -138.5q0 -78 -24.5 -141.5t-67.5 -108.5t-102.5 -70.5t-130.5 -25.5q-72 0 -131.5 25.5t-102.5 70.5t-67.5 108.5t-24.5 141.5zM92 489v64h637v-64h-637zM166 1051 q0 -125 67.5 -202t178.5 -77q109 0 177 77t68 202q0 61 -18 112t-51 88t-78 57.5t-98 20.5q-55 0 -100.5 -20.5t-77 -57.5t-50 -88t-18.5 -112z" />
<glyph unicode="&#xbb;" horiz-adv-x="1042" d="M86 82l367 424l-367 426l59 49l406 -449v-51l-406 -448zM514 82l367 424l-367 426l59 49l406 -449v-51l-406 -448z" />
<glyph unicode="&#xbc;" horiz-adv-x="1966" d="M164 1219l270 157h66v-852h-78v770l-227 -131zM438 23l1032 1376l58 -45l-1032 -1377zM1251 205v55l418 592h74v-584h139v-63h-139v-205h-72v205h-420zM1331 268h340v482z" />
<glyph unicode="&#xbd;" horiz-adv-x="1966" d="M164 1221l270 157h66v-852h-78v770l-227 -131zM438 23l1032 1376l57 -45l-1032 -1377zM1278 2v52l346 348q104 100 105 211q0 86 -51.5 137t-137.5 51q-55 0 -109 -19.5t-110 -54.5l-35 60q137 84 265 84q115 0 185.5 -68.5t70.5 -179.5q0 -137 -119 -254l-297 -299h428 v-68h-541z" />
<glyph unicode="&#xbe;" horiz-adv-x="1966" d="M104 573l31 62q61 -33 117.5 -47.5t109.5 -14.5q90 0 144.5 49.5t54.5 127.5q0 80 -64.5 130t-168.5 50h-52v61h52q96 0 155.5 47t59.5 123q0 74 -49.5 120t-131.5 46q-47 0 -101 -13.5t-114 -41.5l-28 61q68 33 131 46.5t123 13.5q111 0 179.5 -63.5t68.5 -162.5 q0 -74 -43 -129t-115 -75q80 -23 129 -82.5t49 -137.5q0 -104 -73.5 -169.5t-194.5 -65.5q-61 0 -129 15.5t-140 49.5zM438 23l1032 1376l58 -45l-1032 -1377zM1251 205v55l418 592h74v-584h139v-63h-139v-205h-72v205h-420zM1331 268h340v482z" />
<glyph unicode="&#xbf;" horiz-adv-x="798" d="M90 -53q0 74 25.5 132t63.5 107.5t83 93.5t83 88t64.5 90t28.5 103l2 17h82v-23q0 -63 -24.5 -115.5t-61.5 -97.5t-81 -87t-80.5 -87t-61.5 -96.5t-25 -114.5q0 -61 21.5 -113.5t59.5 -90.5t91.5 -58.5t118.5 -20.5q82 0 160 29t160 84l41 -74q-178 -125 -373 -125 q-84 0 -152.5 27t-119 74t-78 113.5t-27.5 144.5zM403 930q0 35 21.5 56.5t56.5 21.5t55.5 -21.5t20.5 -56.5t-20.5 -56.5t-55.5 -21.5t-56.5 21.5t-21.5 56.5z" />
<glyph unicode="&#xc0;" horiz-adv-x="1357" d="M61 0l570 1376h96l569 -1376h-104l-168 410h-690l-168 -410h-105zM365 489h628l-313 766zM416 1755l49 68l325 -226l-39 -57z" />
<glyph unicode="&#xc1;" horiz-adv-x="1357" d="M61 0l570 1376h96l569 -1376h-104l-168 410h-690l-168 -410h-105zM365 489h628l-313 766zM573 1597l328 226l49 -68l-336 -215z" />
<glyph unicode="&#xc2;" horiz-adv-x="1357" d="M61 0l570 1376h96l569 -1376h-104l-168 410h-690l-168 -410h-105zM365 489h628l-313 766zM397 1593l248 242h70l247 -242l-47 -51l-235 219l-236 -219z" />
<glyph unicode="&#xc3;" horiz-adv-x="1357" d="M61 0l570 1376h96l569 -1376h-104l-168 410h-690l-168 -410h-105zM365 489h628l-313 766zM393 1636q16 59 57.5 96t98.5 37q33 0 67.5 -12t67.5 -27.5t63.5 -27.5t57.5 -12q68 0 92 79l69 -22q-16 -59 -57 -95t-98 -36q-33 0 -68 12t-67.5 26.5t-63.5 27t-57 12.5 q-70 0 -92 -78z" />
<glyph unicode="&#xc4;" horiz-adv-x="1357" d="M61 0l570 1376h96l569 -1376h-104l-168 410h-690l-168 -410h-105zM365 489h628l-313 766zM420 1692q0 33 20.5 52t53.5 19t52.5 -19.5t19.5 -51.5q0 -33 -19.5 -52.5t-52.5 -19.5t-53.5 19.5t-20.5 52.5zM832 1692q0 33 19.5 52t52.5 19t53 -19.5t20 -51.5 q0 -33 -20.5 -52.5t-52.5 -19.5q-33 0 -52.5 19.5t-19.5 52.5z" />
<glyph unicode="&#xc5;" horiz-adv-x="1357" d="M61 0l570 1376h96l569 -1376h-104l-168 410h-690l-168 -410h-105zM365 489h628l-313 766zM487 1692q0 86 53.5 137t139.5 51t139 -51t53 -137q0 -84 -51 -136.5t-137 -52.5t-141.5 52.5t-55.5 136.5zM547 1692q0 -59 38.5 -96.5t98.5 -37.5q57 0 93 37t36 97q0 59 -37 96 t-96 37t-96 -37t-37 -96z" />
<glyph unicode="&#xc6;" horiz-adv-x="1978" d="M8 0l932 1376h887v-82h-742v-549h676v-81h-676v-582h775v-82h-873v410h-584l-278 -410h-117zM451 489h536v795z" />
<glyph unicode="&#xc7;" horiz-adv-x="1316" d="M117 688q0 158 48 289t135 225t208 146.5t266 52.5q113 0 226.5 -37t220.5 -111l-45 -71q-92 66 -191.5 99.5t-200.5 33.5q-127 0 -230 -45t-178 -128t-116 -199t-41 -255t41 -255t116 -198.5t178 -128t230 -45.5q100 0 199.5 34t192.5 100l45 -72q-98 -70 -204 -105.5 t-210 -40.5l-21 -108q68 -6 112 -51t44 -107q0 -72 -58.5 -117t-148.5 -45q-41 0 -86 8.5t-90 24.5l21 64q80 -29 147 -29q57 0 94 27.5t37 74.5q0 45 -38 73t-97 28h-21l29 160q-137 6 -250.5 60t-194.5 147.5t-125 220t-44 280.5z" />
<glyph unicode="&#xc8;" horiz-adv-x="1218" d="M225 0v1376h842v-82h-741v-549h675v-81h-675v-582h774v-82h-875zM361 1755l49 68l325 -226l-39 -57z" />
<glyph unicode="&#xc9;" horiz-adv-x="1218" d="M225 0v1376h842v-82h-741v-549h675v-81h-675v-582h774v-82h-875zM518 1597l328 226l49 -68l-336 -215z" />
<glyph unicode="&#xca;" horiz-adv-x="1218" d="M225 0v1376h842v-82h-741v-549h675v-81h-675v-582h774v-82h-875zM342 1593l248 242h70l247 -242l-47 -51l-235 219l-236 -219z" />
<glyph unicode="&#xcb;" horiz-adv-x="1218" d="M225 0v1376h842v-82h-741v-549h675v-81h-675v-582h774v-82h-875zM346 1692q0 33 20.5 52t53.5 19t52.5 -19.5t19.5 -51.5q0 -33 -19.5 -52.5t-52.5 -19.5t-53.5 19.5t-20.5 52.5zM758 1692q0 33 19.5 52t52.5 19t53 -19.5t20 -51.5q0 -33 -20.5 -52.5t-52.5 -19.5 q-33 0 -52.5 19.5t-19.5 52.5z" />
<glyph unicode="&#xcc;" horiz-adv-x="550" d="M13 1755l49 68l325 -226l-39 -57zM225 0v1376h101v-1376h-101z" />
<glyph unicode="&#xcd;" horiz-adv-x="550" d="M170 1597l328 226l49 -68l-336 -215zM225 0v1376h101v-1376h-101z" />
<glyph unicode="&#xce;" horiz-adv-x="550" d="M-6 1593l248 242h70l247 -242l-47 -51l-235 219l-236 -219zM225 0v1376h101v-1376h-101z" />
<glyph unicode="&#xcf;" horiz-adv-x="550" d="M-2 1692q0 33 20.5 52t53.5 19t52.5 -19.5t19.5 -51.5q0 -33 -19.5 -52.5t-52.5 -19.5t-53.5 19.5t-20.5 52.5zM225 0v1376h101v-1376h-101zM410 1692q0 33 19.5 52t52.5 19t53 -19.5t20 -51.5q0 -33 -20.5 -52.5t-52.5 -19.5q-33 0 -52.5 19.5t-19.5 52.5z" />
<glyph unicode="&#xd0;" horiz-adv-x="1488" d="M59 664v81h199v631h422q154 0 282 -50t219 -140t141 -217t50 -281q0 -152 -50 -278.5t-141 -218t-219 -141.5t-282 -50h-422v664h-199zM356 84h318q133 0 243.5 44t189.5 124t123 191.5t44 244.5t-44 244.5t-123 191.5t-189.5 124t-243.5 44h-318v-547h383v-81h-383v-580 z" />
<glyph unicode="&#xd1;" horiz-adv-x="1554" d="M225 0v1376h101l909 -1235v1235h94v-1376h-100l-910 1235v-1235h-94zM491 1636q16 59 57.5 96t98.5 37q33 0 67.5 -12t67.5 -27.5t63.5 -27.5t57.5 -12q68 0 92 79l69 -22q-16 -59 -57 -95t-98 -36q-33 0 -68 12t-67.5 26.5t-63.5 27t-57 12.5q-70 0 -92 -78z" />
<glyph unicode="&#xd2;" horiz-adv-x="1554" d="M117 688q0 156 48 287t136 226t210 147.5t267 52.5t266 -52.5t209 -147.5t136.5 -226t48.5 -287q0 -158 -48.5 -288t-136.5 -225t-208.5 -147.5t-266.5 -52.5q-145 0 -267 52.5t-210 147.5t-136 225t-48 288zM219 688q0 -137 41 -253t116 -198.5t177 -130t225 -47.5 t225.5 47.5t176 130t114.5 198.5t41 253t-41 253t-114.5 199t-176 130t-225.5 47t-225 -47t-177 -130t-116 -199t-41 -253zM514 1755l49 68l325 -226l-39 -57z" />
<glyph unicode="&#xd3;" horiz-adv-x="1554" d="M117 688q0 156 48 287t136 226t210 147.5t267 52.5t266 -52.5t209 -147.5t136.5 -226t48.5 -287q0 -158 -48.5 -288t-136.5 -225t-208.5 -147.5t-266.5 -52.5q-145 0 -267 52.5t-210 147.5t-136 225t-48 288zM219 688q0 -137 41 -253t116 -198.5t177 -130t225 -47.5 t225.5 47.5t176 130t114.5 198.5t41 253t-41 253t-114.5 199t-176 130t-225.5 47t-225 -47t-177 -130t-116 -199t-41 -253zM671 1597l328 226l49 -68l-336 -215z" />
<glyph unicode="&#xd4;" horiz-adv-x="1554" d="M117 688q0 156 48 287t136 226t210 147.5t267 52.5t266 -52.5t209 -147.5t136.5 -226t48.5 -287q0 -158 -48.5 -288t-136.5 -225t-208.5 -147.5t-266.5 -52.5q-145 0 -267 52.5t-210 147.5t-136 225t-48 288zM219 688q0 -137 41 -253t116 -198.5t177 -130t225 -47.5 t225.5 47.5t176 130t114.5 198.5t41 253t-41 253t-114.5 199t-176 130t-225.5 47t-225 -47t-177 -130t-116 -199t-41 -253zM495 1593l248 242h70l247 -242l-47 -51l-235 219l-236 -219z" />
<glyph unicode="&#xd5;" horiz-adv-x="1554" d="M117 688q0 156 48 287t136 226t210 147.5t267 52.5t266 -52.5t209 -147.5t136.5 -226t48.5 -287q0 -158 -48.5 -288t-136.5 -225t-208.5 -147.5t-266.5 -52.5q-145 0 -267 52.5t-210 147.5t-136 225t-48 288zM219 688q0 -137 41 -253t116 -198.5t177 -130t225 -47.5 t225.5 47.5t176 130t114.5 198.5t41 253t-41 253t-114.5 199t-176 130t-225.5 47t-225 -47t-177 -130t-116 -199t-41 -253zM491 1636q16 59 57.5 96t98.5 37q33 0 67.5 -12t67.5 -27.5t63.5 -27.5t57.5 -12q68 0 92 79l69 -22q-16 -59 -57 -95t-98 -36q-33 0 -68 12 t-67.5 26.5t-63.5 27t-57 12.5q-70 0 -92 -78z" />
<glyph unicode="&#xd6;" horiz-adv-x="1554" d="M117 688q0 156 48 287t136 226t210 147.5t267 52.5t266 -52.5t209 -147.5t136.5 -226t48.5 -287q0 -158 -48.5 -288t-136.5 -225t-208.5 -147.5t-266.5 -52.5q-145 0 -267 52.5t-210 147.5t-136 225t-48 288zM219 688q0 -137 41 -253t116 -198.5t177 -130t225 -47.5 t225.5 47.5t176 130t114.5 198.5t41 253t-41 253t-114.5 199t-176 130t-225.5 47t-225 -47t-177 -130t-116 -199t-41 -253zM499 1692q0 33 20.5 52t53.5 19t52.5 -19.5t19.5 -51.5q0 -33 -19.5 -52.5t-52.5 -19.5t-53.5 19.5t-20.5 52.5zM911 1692q0 33 19.5 52t52.5 19 t53 -19.5t20 -51.5q0 -33 -20.5 -52.5t-52.5 -19.5q-33 0 -52.5 19.5t-19.5 52.5z" />
<glyph unicode="&#xd7;" d="M180 240l350 350l-350 350l60 59l350 -350l350 350l59 -59l-350 -350l350 -350l-59 -60l-350 350l-350 -350z" />
<glyph unicode="&#xd8;" horiz-adv-x="1554" d="M117 688q0 156 48 287t136 226t210 147.5t267 52.5q115 0 214.5 -34t178.5 -97l101 135l53 -43l-100 -133q102 -96 157.5 -233.5t55.5 -307.5q0 -158 -48.5 -288t-136.5 -225t-208.5 -147.5t-266.5 -52.5q-117 0 -216 34t-179 97l-100 -135l-54 43l99 133 q-100 96 -155.5 233.5t-55.5 307.5zM213 688q0 -145 45 -264t127 -203l733 977q-139 121 -340 121q-125 0 -228.5 -47t-178 -130t-116.5 -200t-42 -254zM436 176q70 -57 155 -88t187 -31q123 0 226.5 47.5t178 130t116.5 198.5t42 255q0 145 -45 264t-127 203z" />
<glyph unicode="&#xd9;" horiz-adv-x="1554" d="M209 516v860h100v-856q0 -102 35 -186t98.5 -145.5t148.5 -95.5t187 -34q100 0 186.5 34t149 95.5t97 145.5t34.5 186v856h101v-860q0 -119 -43 -218t-119 -171t-179.5 -112t-226.5 -40t-227.5 40t-180 112t-118.5 171t-43 218zM514 1755l49 68l325 -226l-39 -57z" />
<glyph unicode="&#xda;" horiz-adv-x="1554" d="M209 516v860h100v-856q0 -102 35 -186t98.5 -145.5t148.5 -95.5t187 -34q100 0 186.5 34t149 95.5t97 145.5t34.5 186v856h101v-860q0 -119 -43 -218t-119 -171t-179.5 -112t-226.5 -40t-227.5 40t-180 112t-118.5 171t-43 218zM671 1597l328 226l49 -68l-336 -215z" />
<glyph unicode="&#xdb;" horiz-adv-x="1554" d="M209 516v860h100v-856q0 -102 35 -186t98.5 -145.5t148.5 -95.5t187 -34q100 0 186.5 34t149 95.5t97 145.5t34.5 186v856h101v-860q0 -119 -43 -218t-119 -171t-179.5 -112t-226.5 -40t-227.5 40t-180 112t-118.5 171t-43 218zM495 1593l248 242h70l247 -242l-47 -51 l-235 219l-236 -219z" />
<glyph unicode="&#xdc;" horiz-adv-x="1554" d="M209 516v860h100v-856q0 -102 35 -186t98.5 -145.5t148.5 -95.5t187 -34q100 0 186.5 34t149 95.5t97 145.5t34.5 186v856h101v-860q0 -119 -43 -218t-119 -171t-179.5 -112t-226.5 -40t-227.5 40t-180 112t-118.5 171t-43 218zM499 1692q0 33 20.5 52t53.5 19 t52.5 -19.5t19.5 -51.5q0 -33 -19.5 -52.5t-52.5 -19.5t-53.5 19.5t-20.5 52.5zM911 1692q0 33 19.5 52t52.5 19t53 -19.5t20 -51.5q0 -33 -20.5 -52.5t-52.5 -19.5q-33 0 -52.5 19.5t-19.5 52.5z" />
<glyph unicode="&#xdd;" horiz-adv-x="1204" d="M45 1376h113l444 -680l442 680h115l-508 -772v-604h-100v604zM495 1597l328 226l49 -68l-336 -215z" />
<glyph unicode="&#xde;" horiz-adv-x="1257" d="M225 0v1376h99v-256h389q98 0 179 -30.5t140.5 -86t92 -131t32.5 -167.5t-32.5 -168t-92 -131.5t-140.5 -86t-179 -30.5h-389v-289h-99zM324 371h378q78 0 142.5 24.5t112 68.5t74 105.5t26.5 135.5t-26.5 135t-74 105t-112 68.5t-142.5 24.5h-378v-667z" />
<glyph unicode="&#xdf;" horiz-adv-x="1236" d="M178 0v1090q0 86 29 155.5t80 118.5t122.5 75.5t159.5 26.5q80 0 145.5 -23.5t112.5 -64.5t73 -97t26 -120q0 -78 -29 -130t-63.5 -97t-63.5 -89t-29 -106q0 -61 30 -100t76 -67.5t98 -54t98.5 -60.5t76 -85t29.5 -126q0 -61 -24.5 -111.5t-68.5 -86.5t-104.5 -54.5 t-134.5 -18.5q-66 0 -133.5 16.5t-144.5 51.5l28 76q133 -63 244 -64q109 0 176.5 50.5t67.5 140.5q0 61 -31 100t-76 68.5t-99 55.5t-99 59.5t-76 81.5t-31 124q0 72 28.5 121t63.5 94t63.5 93.5t28.5 115.5q0 96 -71.5 161.5t-190.5 65.5q-131 0 -211 -79.5t-80 -221.5 v-1085h-96z" />
<glyph unicode="&#xe0;" horiz-adv-x="1099" d="M102 264q0 154 119 239t330 85q57 0 116.5 -6.5t123.5 -22.5v131q0 111 -74 177.5t-193 66.5q-162 0 -331 -72l-27 74q186 78 366 78q78 0 143.5 -23.5t113 -66.5t73 -102.5t25.5 -131.5v-532q0 -47 27.5 -75t74.5 -28q14 0 29.5 2t28.5 6l10 -77q-45 -10 -88 -11 q-74 0 -121 45.5t-47 122.5v37q-49 -98 -144.5 -151.5t-216.5 -53.5q-72 0 -134 21.5t-107 60.5t-71 92.5t-26 114.5zM201 268q0 -47 19.5 -86t54 -68.5t81.5 -46t103 -16.5q74 0 135 24.5t105 69.5t68 108.5t24 139.5v99q-123 31 -232 30q-170 0 -264 -66.5t-94 -187.5z M269 1368l49 68l325 -226l-39 -57z" />
<glyph unicode="&#xe1;" horiz-adv-x="1099" d="M102 264q0 154 119 239t330 85q57 0 116.5 -6.5t123.5 -22.5v131q0 111 -74 177.5t-193 66.5q-162 0 -331 -72l-27 74q186 78 366 78q78 0 143.5 -23.5t113 -66.5t73 -102.5t25.5 -131.5v-532q0 -47 27.5 -75t74.5 -28q14 0 29.5 2t28.5 6l10 -77q-45 -10 -88 -11 q-74 0 -121 45.5t-47 122.5v37q-49 -98 -144.5 -151.5t-216.5 -53.5q-72 0 -134 21.5t-107 60.5t-71 92.5t-26 114.5zM201 268q0 -47 19.5 -86t54 -68.5t81.5 -46t103 -16.5q74 0 135 24.5t105 69.5t68 108.5t24 139.5v99q-123 31 -232 30q-170 0 -264 -66.5t-94 -187.5z M426 1210l328 226l49 -68l-336 -215z" />
<glyph unicode="&#xe2;" horiz-adv-x="1099" d="M102 264q0 154 119 239t330 85q57 0 116.5 -6.5t123.5 -22.5v131q0 111 -74 177.5t-193 66.5q-162 0 -331 -72l-27 74q186 78 366 78q78 0 143.5 -23.5t113 -66.5t73 -102.5t25.5 -131.5v-532q0 -47 27.5 -75t74.5 -28q14 0 29.5 2t28.5 6l10 -77q-45 -10 -88 -11 q-74 0 -121 45.5t-47 122.5v37q-49 -98 -144.5 -151.5t-216.5 -53.5q-72 0 -134 21.5t-107 60.5t-71 92.5t-26 114.5zM201 268q0 -47 19.5 -86t54 -68.5t81.5 -46t103 -16.5q74 0 135 24.5t105 69.5t68 108.5t24 139.5v99q-123 31 -232 30q-170 0 -264 -66.5t-94 -187.5z M250 1206l248 242h70l247 -242l-47 -51l-235 219l-236 -219z" />
<glyph unicode="&#xe3;" horiz-adv-x="1099" d="M102 264q0 154 119 239t330 85q57 0 116.5 -6.5t123.5 -22.5v131q0 111 -74 177.5t-193 66.5q-162 0 -331 -72l-27 74q186 78 366 78q78 0 143.5 -23.5t113 -66.5t73 -102.5t25.5 -131.5v-532q0 -47 27.5 -75t74.5 -28q14 0 29.5 2t28.5 6l10 -77q-45 -10 -88 -11 q-74 0 -121 45.5t-47 122.5v37q-49 -98 -144.5 -151.5t-216.5 -53.5q-72 0 -134 21.5t-107 60.5t-71 92.5t-26 114.5zM201 268q0 -47 19.5 -86t54 -68.5t81.5 -46t103 -16.5q74 0 135 24.5t105 69.5t68 108.5t24 139.5v99q-123 31 -232 30q-170 0 -264 -66.5t-94 -187.5z M246 1249q16 59 57.5 96t98.5 37q33 0 67.5 -12t67.5 -27.5t63.5 -27.5t57.5 -12q68 0 92 79l69 -22q-16 -59 -57 -95t-98 -36q-33 0 -68 12t-67.5 26.5t-63.5 27t-57 12.5q-70 0 -92 -78z" />
<glyph unicode="&#xe4;" horiz-adv-x="1099" d="M102 264q0 154 119 239t330 85q57 0 116.5 -6.5t123.5 -22.5v131q0 111 -74 177.5t-193 66.5q-162 0 -331 -72l-27 74q186 78 366 78q78 0 143.5 -23.5t113 -66.5t73 -102.5t25.5 -131.5v-532q0 -47 27.5 -75t74.5 -28q14 0 29.5 2t28.5 6l10 -77q-45 -10 -88 -11 q-74 0 -121 45.5t-47 122.5v37q-49 -98 -144.5 -151.5t-216.5 -53.5q-72 0 -134 21.5t-107 60.5t-71 92.5t-26 114.5zM201 268q0 -47 19.5 -86t54 -68.5t81.5 -46t103 -16.5q74 0 135 24.5t105 69.5t68 108.5t24 139.5v99q-123 31 -232 30q-170 0 -264 -66.5t-94 -187.5z M254 1305q0 33 20.5 52t53.5 19t52.5 -19.5t19.5 -51.5q0 -33 -19.5 -52.5t-52.5 -19.5t-53.5 19.5t-20.5 52.5zM666 1305q0 33 19.5 52t52.5 19t53 -19.5t20 -51.5q0 -33 -20.5 -52.5t-52.5 -19.5q-33 0 -52.5 19.5t-19.5 52.5z" />
<glyph unicode="&#xe5;" horiz-adv-x="1099" d="M102 264q0 154 119 239t330 85q57 0 116.5 -6.5t123.5 -22.5v131q0 111 -74 177.5t-193 66.5q-162 0 -331 -72l-27 74q186 78 366 78q78 0 143.5 -23.5t113 -66.5t73 -102.5t25.5 -131.5v-532q0 -47 27.5 -75t74.5 -28q14 0 29.5 2t28.5 6l10 -77q-45 -10 -88 -11 q-74 0 -121 45.5t-47 122.5v37q-49 -98 -144.5 -151.5t-216.5 -53.5q-72 0 -134 21.5t-107 60.5t-71 92.5t-26 114.5zM201 268q0 -47 19.5 -86t54 -68.5t81.5 -46t103 -16.5q74 0 135 24.5t105 69.5t68 108.5t24 139.5v99q-123 31 -232 30q-170 0 -264 -66.5t-94 -187.5z M340 1305q0 86 53.5 137t139.5 51t139 -51t53 -137q0 -84 -51 -136.5t-137 -52.5t-141.5 52.5t-55.5 136.5zM400 1305q0 -59 38.5 -96.5t98.5 -37.5q57 0 93 37t36 97q0 59 -37 96t-96 37t-96 -37t-37 -96z" />
<glyph unicode="&#xe6;" horiz-adv-x="1769" d="M102 262q0 156 119 241t330 85q57 0 116.5 -6.5t123.5 -22.5v131q0 111 -74 177.5t-193 66.5q-162 0 -331 -72l-27 74q186 78 366 78q133 0 224.5 -64.5t107.5 -171.5q51 111 152.5 173.5t236.5 62.5q94 0 174 -37t136.5 -102.5t88 -157.5t31.5 -203v-20.5t-2 -20.5h-794 q4 -92 34.5 -170t85 -133t127 -86t160.5 -31q70 0 148 21.5t157 64.5l35 -71q-92 -47 -180 -70t-168 -23q-152 0 -267.5 77t-174.5 212q-35 -133 -142.5 -211t-257.5 -78q-74 0 -136 21.5t-108 60.5t-72 91.5t-26 113.5zM201 268q0 -47 19.5 -86t54 -68.5t81.5 -46 t103 -16.5q74 0 135 24.5t104 69.5t68 108.5t25 139.5v99q-123 31 -232 30q-170 0 -264 -66.5t-94 -187.5zM887 541h700q-2 88 -26.5 159.5t-68.5 124t-104.5 81t-134.5 28.5q-78 0 -142 -28.5t-112.5 -80t-77 -124t-34.5 -160.5z" />
<glyph unicode="&#xe7;" horiz-adv-x="995" d="M102 494q0 115 36 210t99.5 164.5t151.5 107.5t193 38q174 0 331 -111l-43 -69q-133 96 -278 96q-86 0 -156.5 -32t-123 -89t-81 -138t-28.5 -177t28.5 -176t81 -137.5t123 -89.5t156.5 -32q145 0 278 97l43 -72q-143 -100 -301 -107l-20 -108q68 -6 112 -51t44 -107 q0 -72 -58.5 -117t-148.5 -45q-41 0 -86 8.5t-90 24.5l22 64q80 -29 145 -29q53 0 92.5 26.5t39.5 75.5q0 45 -38 73t-98 28h-18l29 157q-96 6 -177 47.5t-138.5 109t-89.5 159.5t-32 201z" />
<glyph unicode="&#xe8;" horiz-adv-x="1083" d="M102 494q0 115 34 210t95.5 164.5t146.5 107.5t187 38q94 0 174 -37t136.5 -102.5t88 -157.5t31.5 -203v-41h-794q2 -92 33.5 -170t85 -133t127 -86t161.5 -31q141 0 305 86l33 -71q-92 -47 -181 -70t-167 -23q-109 0 -200 38t-156.5 107.5t-102.5 164t-37 209.5z M201 541h700q-2 88 -26.5 159.5t-68.5 124t-105.5 81t-135.5 28.5q-78 0 -142.5 -28.5t-111.5 -80t-75.5 -124t-34.5 -160.5zM301 1368l49 68l325 -226l-39 -57z" />
<glyph unicode="&#xe9;" horiz-adv-x="1083" d="M102 494q0 115 34 210t95.5 164.5t146.5 107.5t187 38q94 0 174 -37t136.5 -102.5t88 -157.5t31.5 -203v-41h-794q2 -92 33.5 -170t85 -133t127 -86t161.5 -31q141 0 305 86l33 -71q-92 -47 -181 -70t-167 -23q-109 0 -200 38t-156.5 107.5t-102.5 164t-37 209.5z M201 541h700q-2 88 -26.5 159.5t-68.5 124t-105.5 81t-135.5 28.5q-78 0 -142.5 -28.5t-111.5 -80t-75.5 -124t-34.5 -160.5zM458 1210l328 226l49 -68l-336 -215z" />
<glyph unicode="&#xea;" horiz-adv-x="1083" d="M102 494q0 115 34 210t95.5 164.5t146.5 107.5t187 38q94 0 174 -37t136.5 -102.5t88 -157.5t31.5 -203v-41h-794q2 -92 33.5 -170t85 -133t127 -86t161.5 -31q141 0 305 86l33 -71q-92 -47 -181 -70t-167 -23q-109 0 -200 38t-156.5 107.5t-102.5 164t-37 209.5z M201 541h700q-2 88 -26.5 159.5t-68.5 124t-105.5 81t-135.5 28.5q-78 0 -142.5 -28.5t-111.5 -80t-75.5 -124t-34.5 -160.5zM282 1206l248 242h70l247 -242l-47 -51l-235 219l-236 -219z" />
<glyph unicode="&#xeb;" horiz-adv-x="1083" d="M102 494q0 115 34 210t95.5 164.5t146.5 107.5t187 38q94 0 174 -37t136.5 -102.5t88 -157.5t31.5 -203v-41h-794q2 -92 33.5 -170t85 -133t127 -86t161.5 -31q141 0 305 86l33 -71q-92 -47 -181 -70t-167 -23q-109 0 -200 38t-156.5 107.5t-102.5 164t-37 209.5z M201 541h700q-2 88 -26.5 159.5t-68.5 124t-105.5 81t-135.5 28.5q-78 0 -142.5 -28.5t-111.5 -80t-75.5 -124t-34.5 -160.5zM286 1305q0 33 20.5 52t53.5 19t52.5 -19.5t19.5 -51.5q0 -33 -19.5 -52.5t-52.5 -19.5t-53.5 19.5t-20.5 52.5zM698 1305q0 33 19.5 52t52.5 19 t53 -19.5t20 -51.5q0 -33 -20.5 -52.5t-52.5 -19.5q-33 0 -52.5 19.5t-19.5 52.5z" />
<glyph unicode="&#xec;" horiz-adv-x="454" d="M-34 1368l49 68l325 -226l-39 -57zM178 0v989h98v-989h-98z" />
<glyph unicode="&#xed;" horiz-adv-x="454" d="M123 1210l328 226l49 -68l-336 -215zM178 0v989h98v-989h-98z" />
<glyph unicode="&#xee;" horiz-adv-x="454" d="M-53 1206l248 242h70l247 -242l-47 -51l-235 219l-236 -219zM178 0v989h98v-989h-98z" />
<glyph unicode="&#xef;" horiz-adv-x="454" d="M-49 1305q0 33 20.5 52t53.5 19t52.5 -19.5t19.5 -51.5q0 -33 -19.5 -52.5t-52.5 -19.5t-53.5 19.5t-20.5 52.5zM178 0v989h98v-989h-98zM363 1305q0 33 19.5 52t52.5 19t53 -19.5t20 -51.5q0 -33 -20.5 -52.5t-52.5 -19.5q-33 0 -52.5 19.5t-19.5 52.5z" />
<glyph unicode="&#xf0;" horiz-adv-x="1171" d="M102 494q0 113 34 207t94.5 161.5t144.5 105.5t182 38q102 0 184 -34t154 -120q-88 260 -307 412l-269 -134l-30 60l229 113q-92 55 -196 94l26 69q145 -47 260 -118l244 118l29 -57l-209 -104q162 -121 259 -290t116 -374q4 -31 4 -61.5t-2 -61.5q-4 -121 -41 -220 t-100.5 -171t-150.5 -112t-192 -40q-102 0 -187 38t-146.5 106.5t-95.5 164t-34 210.5zM199 489q0 -96 27.5 -176t76.5 -138t116.5 -90t149.5 -32q84 0 155 34t121 95.5t78.5 146.5t28.5 187q0 90 -28.5 166t-78.5 130t-121 84t-155 30q-82 0 -149.5 -32t-116.5 -89 t-76.5 -138.5t-27.5 -177.5z" />
<glyph unicode="&#xf1;" horiz-adv-x="1171" d="M178 0v989h80l12 -207q49 111 147.5 171.5t221.5 60.5q80 0 147.5 -26.5t116.5 -75t77 -114t28 -145.5v-653h-99v641q0 63 -21.5 116.5t-60.5 91.5t-93 59.5t-118 21.5q-74 0 -135 -26.5t-107 -74t-72 -115t-26 -147.5v-567h-98zM299 1249q16 59 57.5 96t98.5 37 q33 0 67.5 -12t67.5 -27.5t63.5 -27.5t57.5 -12q68 0 92 79l69 -22q-16 -59 -57 -95t-98 -36q-33 0 -68 12t-67.5 26.5t-63.5 27t-57 12.5q-70 0 -92 -78z" />
<glyph unicode="&#xf2;" horiz-adv-x="1171" d="M102 494q0 115 36 210t100.5 164.5t152.5 107.5t195 38q106 0 194 -38t151.5 -107.5t99.5 -165t36 -209.5q0 -115 -36 -209.5t-99.5 -164t-151.5 -107.5t-194 -38t-194.5 38t-153 107.5t-100.5 164t-36 209.5zM203 494q0 -96 27.5 -176t78.5 -138.5t122 -90.5t155 -32 t154.5 32t120.5 90.5t79 138t29 176.5q0 96 -29 177t-79 139t-120.5 90t-154.5 32t-155 -32t-122 -90t-78.5 -139t-27.5 -177zM322 1368l49 68l325 -226l-39 -57z" />
<glyph unicode="&#xf3;" horiz-adv-x="1171" d="M102 494q0 115 36 210t100.5 164.5t152.5 107.5t195 38q106 0 194 -38t151.5 -107.5t99.5 -165t36 -209.5q0 -115 -36 -209.5t-99.5 -164t-151.5 -107.5t-194 -38t-194.5 38t-153 107.5t-100.5 164t-36 209.5zM203 494q0 -96 27.5 -176t78.5 -138.5t122 -90.5t155 -32 t154.5 32t120.5 90.5t79 138t29 176.5q0 96 -29 177t-79 139t-120.5 90t-154.5 32t-155 -32t-122 -90t-78.5 -139t-27.5 -177zM479 1210l328 226l49 -68l-336 -215z" />
<glyph unicode="&#xf4;" horiz-adv-x="1171" d="M102 494q0 115 36 210t100.5 164.5t152.5 107.5t195 38q106 0 194 -38t151.5 -107.5t99.5 -165t36 -209.5q0 -115 -36 -209.5t-99.5 -164t-151.5 -107.5t-194 -38t-194.5 38t-153 107.5t-100.5 164t-36 209.5zM203 494q0 -96 27.5 -176t78.5 -138.5t122 -90.5t155 -32 t154.5 32t120.5 90.5t79 138t29 176.5q0 96 -29 177t-79 139t-120.5 90t-154.5 32t-155 -32t-122 -90t-78.5 -139t-27.5 -177zM303 1206l248 242h70l247 -242l-47 -51l-235 219l-236 -219z" />
<glyph unicode="&#xf5;" horiz-adv-x="1171" d="M102 494q0 115 36 210t100.5 164.5t152.5 107.5t195 38q106 0 194 -38t151.5 -107.5t99.5 -165t36 -209.5q0 -115 -36 -209.5t-99.5 -164t-151.5 -107.5t-194 -38t-194.5 38t-153 107.5t-100.5 164t-36 209.5zM203 494q0 -96 27.5 -176t78.5 -138.5t122 -90.5t155 -32 t154.5 32t120.5 90.5t79 138t29 176.5q0 96 -29 177t-79 139t-120.5 90t-154.5 32t-155 -32t-122 -90t-78.5 -139t-27.5 -177zM299 1249q16 59 57.5 96t98.5 37q33 0 67.5 -12t67.5 -27.5t63.5 -27.5t57.5 -12q68 0 92 79l69 -22q-16 -59 -57 -95t-98 -36q-33 0 -68 12 t-67.5 26.5t-63.5 27t-57 12.5q-70 0 -92 -78z" />
<glyph unicode="&#xf6;" horiz-adv-x="1171" d="M102 494q0 115 36 210t100.5 164.5t152.5 107.5t195 38q106 0 194 -38t151.5 -107.5t99.5 -165t36 -209.5q0 -115 -36 -209.5t-99.5 -164t-151.5 -107.5t-194 -38t-194.5 38t-153 107.5t-100.5 164t-36 209.5zM203 494q0 -96 27.5 -176t78.5 -138.5t122 -90.5t155 -32 t154.5 32t120.5 90.5t79 138t29 176.5q0 96 -29 177t-79 139t-120.5 90t-154.5 32t-155 -32t-122 -90t-78.5 -139t-27.5 -177zM307 1305q0 33 20.5 52t53.5 19t52.5 -19.5t19.5 -51.5q0 -33 -19.5 -52.5t-52.5 -19.5t-53.5 19.5t-20.5 52.5zM719 1305q0 33 19.5 52t52.5 19 t53 -19.5t20 -51.5q0 -33 -20.5 -52.5t-52.5 -19.5q-33 0 -52.5 19.5t-19.5 52.5z" />
<glyph unicode="&#xf7;" d="M119 549v82h942v-82h-942zM524 197q0 29 18.5 47t47.5 18t47 -18.5t18 -46.5q0 -29 -18.5 -47.5t-46.5 -18.5q-29 0 -47.5 18.5t-18.5 47.5zM524 983q0 29 18.5 47.5t47.5 18.5t47 -17.5t18 -48.5q0 -29 -18.5 -47t-46.5 -18q-29 0 -47.5 18t-18.5 47z" />
<glyph unicode="&#xf8;" horiz-adv-x="1171" d="M102 494q0 115 36 210t100.5 164.5t152.5 107.5t195 38q82 0 152.5 -24.5t127.5 -67.5l72 94l49 -39l-72 -94q72 -70 112 -168.5t40 -220.5q0 -115 -36 -209.5t-99.5 -164t-151.5 -107.5t-194 -38q-166 0 -281 93l-72 -95l-49 39l70 90q-72 72 -112 170.5t-40 221.5z M197 494q0 -98 29.5 -178t82.5 -140l506 678q-96 80 -229 80q-86 0 -158 -32t-123 -90t-79.5 -139t-28.5 -179zM354 135q47 -39 104.5 -60.5t127.5 -21.5q86 0 156.5 33t123 91.5t81 139.5t28.5 177q0 98 -30 179t-83 138z" />
<glyph unicode="&#xf9;" horiz-adv-x="1171" d="M162 336v653h98v-641q0 -63 21.5 -116.5t61.5 -91.5t93 -59.5t119 -21.5q74 0 135.5 27t106.5 74t70.5 114.5t25.5 147.5v567h98v-989h-80l-12 205q-47 -111 -145.5 -170.5t-221.5 -59.5q-80 0 -148.5 27t-117.5 75t-76.5 113.5t-27.5 145.5zM322 1368l49 68l325 -226 l-39 -57z" />
<glyph unicode="&#xfa;" horiz-adv-x="1171" d="M162 336v653h98v-641q0 -63 21.5 -116.5t61.5 -91.5t93 -59.5t119 -21.5q74 0 135.5 27t106.5 74t70.5 114.5t25.5 147.5v567h98v-989h-80l-12 205q-47 -111 -145.5 -170.5t-221.5 -59.5q-80 0 -148.5 27t-117.5 75t-76.5 113.5t-27.5 145.5zM479 1210l328 226l49 -68 l-336 -215z" />
<glyph unicode="&#xfb;" horiz-adv-x="1171" d="M162 336v653h98v-641q0 -63 21.5 -116.5t61.5 -91.5t93 -59.5t119 -21.5q74 0 135.5 27t106.5 74t70.5 114.5t25.5 147.5v567h98v-989h-80l-12 205q-47 -111 -145.5 -170.5t-221.5 -59.5q-80 0 -148.5 27t-117.5 75t-76.5 113.5t-27.5 145.5zM303 1206l248 242h70 l247 -242l-47 -51l-235 219l-236 -219z" />
<glyph unicode="&#xfc;" horiz-adv-x="1171" d="M162 336v653h98v-641q0 -63 21.5 -116.5t61.5 -91.5t93 -59.5t119 -21.5q74 0 135.5 27t106.5 74t70.5 114.5t25.5 147.5v567h98v-989h-80l-12 205q-47 -111 -145.5 -170.5t-221.5 -59.5q-80 0 -148.5 27t-117.5 75t-76.5 113.5t-27.5 145.5zM307 1305q0 33 20.5 52 t53.5 19t52.5 -19.5t19.5 -51.5q0 -33 -19.5 -52.5t-52.5 -19.5t-53.5 19.5t-20.5 52.5zM719 1305q0 33 19.5 52t52.5 19t53 -19.5t20 -51.5q0 -33 -20.5 -52.5t-52.5 -19.5q-33 0 -52.5 19.5t-19.5 52.5z" />
<glyph unicode="&#xfd;" horiz-adv-x="1040" d="M63 989h103l360 -872l346 872h103l-471 -1161q-59 -147 -129 -213t-180 -66q-51 0 -127 17l16 82q29 -8 55.5 -11.5t48.5 -3.5q80 0 130.5 50.5t97.5 164.5l63 158zM413 1210l328 226l49 -68l-336 -215z" />
<glyph unicode="&#xfe;" horiz-adv-x="1171" d="M178 -426v1868h98v-637q53 100 143.5 154.5t207.5 54.5q96 0 177 -38t139 -107.5t91 -165t33 -209.5q0 -115 -33 -209.5t-91 -164t-139 -107.5t-177 -38q-117 0 -207 54.5t-144 154.5v-610h-98zM274 406q0 -76 25 -140.5t69 -110.5t104 -72t134 -26q80 0 146.5 33 t114.5 90.5t75 137.5t27 176t-27 176t-75 138t-114.5 91t-146.5 33q-74 0 -134 -25.5t-104 -72t-69 -111t-25 -139.5v-178z" />
<glyph unicode="&#xff;" horiz-adv-x="1040" d="M63 989h103l360 -872l346 872h103l-471 -1161q-59 -147 -129 -213t-180 -66q-51 0 -127 17l16 82q29 -8 55.5 -11.5t48.5 -3.5q80 0 130.5 50.5t97.5 164.5l63 158zM241 1305q0 33 20.5 52t53.5 19t52.5 -19.5t19.5 -51.5q0 -33 -19.5 -52.5t-52.5 -19.5t-53.5 19.5 t-20.5 52.5zM653 1305q0 33 19.5 52t52.5 19t53 -19.5t20 -51.5q0 -33 -20.5 -52.5t-52.5 -19.5q-33 0 -52.5 19.5t-19.5 52.5z" />
<glyph unicode="&#x152;" horiz-adv-x="2064" d="M117 688q0 152 50 279t140 218t218 141t282 50h1106v-82h-742v-549h676v-81h-676v-582h775v-82h-1139q-154 0 -282 50t-218 140.5t-140 217t-50 280.5zM219 688q0 -133 44 -244.5t123 -191.5t188.5 -124t242.5 -44h254v1208h-254q-133 0 -242.5 -44t-188.5 -124 t-123 -191.5t-44 -244.5z" />
<glyph unicode="&#x153;" horiz-adv-x="1949" d="M102 494q0 115 36 210t100.5 164.5t152.5 107.5t195 38q156 0 271.5 -87t160.5 -235q45 147 153.5 234.5t262.5 87.5q94 0 174 -37t136 -102.5t88 -157.5t32 -203v-20.5t-2 -20.5h-795q4 -92 35 -170t85 -133t126.5 -86t161.5 -31q70 0 147.5 21.5t155.5 64.5l37 -71 q-92 -47 -181.5 -70t-167.5 -23q-162 0 -281.5 87.5t-166.5 236.5q-45 -147 -160 -235.5t-272 -88.5q-106 0 -194.5 38t-153 107.5t-100.5 164t-36 209.5zM203 494q0 -96 27.5 -176t78.5 -138.5t122 -90.5t155 -32t154.5 32t120.5 90.5t79 138t29 176.5q0 96 -29 177 t-79 139t-120.5 90t-154.5 32t-155 -32t-122 -90t-78.5 -139t-27.5 -177zM1067 541h700q-2 88 -26.5 159.5t-68.5 124t-104 81t-134 28.5q-78 0 -142.5 -28.5t-113 -81t-77 -124t-34.5 -159.5z" />
<glyph unicode="&#x178;" horiz-adv-x="1204" d="M45 1376h113l444 -680l442 680h115l-508 -772v-604h-100v604zM323 1692q0 33 20.5 52t53.5 19t52.5 -19.5t19.5 -51.5q0 -33 -19.5 -52.5t-52.5 -19.5t-53.5 19.5t-20.5 52.5zM735 1692q0 33 19.5 52t52.5 19t53 -19.5t20 -51.5q0 -33 -20.5 -52.5t-52.5 -19.5 q-33 0 -52.5 19.5t-19.5 52.5z" />
<glyph unicode="&#x2c6;" horiz-adv-x="491" d="M-37 1206l248 242h70l247 -242l-47 -51l-235 219l-236 -219z" />
<glyph unicode="&#x2dc;" horiz-adv-x="491" d="M-41 1249q16 59 57.5 96t98.5 37q33 0 67.5 -12t67.5 -27.5t63.5 -27.5t57.5 -12q68 0 92 79l69 -22q-16 -59 -57 -95t-98 -36q-33 0 -68 12t-67.5 26.5t-63.5 27t-57 12.5q-70 0 -92 -78z" />
<glyph unicode="&#x2000;" horiz-adv-x="940" />
<glyph unicode="&#x2001;" horiz-adv-x="1880" />
<glyph unicode="&#x2002;" horiz-adv-x="940" />
<glyph unicode="&#x2003;" horiz-adv-x="1880" />
<glyph unicode="&#x2004;" horiz-adv-x="626" />
<glyph unicode="&#x2005;" horiz-adv-x="470" />
<glyph unicode="&#x2006;" horiz-adv-x="313" />
<glyph unicode="&#x2007;" horiz-adv-x="313" />
<glyph unicode="&#x2008;" horiz-adv-x="235" />
<glyph unicode="&#x2009;" horiz-adv-x="376" />
<glyph unicode="&#x200a;" horiz-adv-x="104" />
<glyph unicode="&#x2010;" horiz-adv-x="655" d="M59 467v80h537v-80h-537z" />
<glyph unicode="&#x2011;" horiz-adv-x="655" d="M59 467v80h537v-80h-537z" />
<glyph unicode="&#x2012;" horiz-adv-x="655" d="M59 467v80h537v-80h-537z" />
<glyph unicode="&#x2013;" horiz-adv-x="983" d="M59 467v80h865v-80h-865z" />
<glyph unicode="&#x2014;" horiz-adv-x="1966" d="M59 467v80h1848v-80h-1848z" />
<glyph unicode="&#x2018;" horiz-adv-x="483" d="M150 1053q0 104 51 193t149 153l35 -47q-152 -115 -152 -269q35 4 63 -18t28 -57t-24 -58.5t-58 -23.5q-43 0 -67.5 33.5t-24.5 93.5z" />
<glyph unicode="&#x2019;" horiz-adv-x="483" d="M98 968q152 115 152 269q-37 -4 -63.5 18t-26.5 57t22.5 58.5t59.5 23.5q41 0 66.5 -33.5t25.5 -93.5q0 -104 -52.5 -193t-148.5 -153z" />
<glyph unicode="&#x201a;" horiz-adv-x="417" d="M98 -281q152 115 152 269q-37 -4 -63.5 18t-26.5 57t22.5 58.5t59.5 23.5q41 0 66.5 -33.5t25.5 -93.5q0 -104 -52.5 -193t-148.5 -153z" />
<glyph unicode="&#x201c;" horiz-adv-x="845" d="M150 1053q0 104 51 193t149 153l35 -47q-152 -115 -152 -269q35 4 63 -18t28 -57t-24 -58.5t-58 -23.5q-43 0 -67.5 33.5t-24.5 93.5zM515 1053q0 104 51 193t149 153l35 -47q-152 -115 -152 -269q35 4 63 -18t28 -57t-24 -58.5t-58 -23.5q-43 0 -67.5 33.5t-24.5 93.5z " />
<glyph unicode="&#x201d;" horiz-adv-x="845" d="M98 968q152 115 152 269q-37 -4 -63.5 18t-26.5 57t22.5 58.5t59.5 23.5q41 0 66.5 -33.5t25.5 -93.5q0 -104 -52.5 -193t-148.5 -153zM460 968q152 115 152 269q-37 -4 -63.5 18t-26.5 57t22.5 58.5t59.5 23.5q41 0 66.5 -33.5t25.5 -93.5q0 -104 -52.5 -193 t-148.5 -153z" />
<glyph unicode="&#x201e;" horiz-adv-x="845" d="M98 -281q152 115 152 269q-37 -4 -63.5 18t-26.5 57t22.5 58.5t59.5 23.5q41 0 66.5 -33.5t25.5 -93.5q0 -104 -52.5 -193t-148.5 -153zM460 -281q152 115 152 269q-37 -4 -63.5 18t-26.5 57t22.5 58.5t59.5 23.5q41 0 66.5 -33.5t25.5 -93.5q0 -104 -52.5 -193 t-148.5 -153z" />
<glyph unicode="&#x2022;" horiz-adv-x="983" d="M197 590q0 61 22.5 114.5t62.5 93.5t94 63.5t116 23.5q61 0 114 -23.5t93 -63.5t63.5 -93.5t23.5 -114.5t-23.5 -115.5t-63.5 -94.5t-93 -62.5t-114 -22.5t-115.5 22.5t-94.5 62.5t-62.5 94.5t-22.5 115.5z" />
<glyph unicode="&#x2026;" horiz-adv-x="1966" d="M246 63q0 35 23.5 58.5t58.5 23.5t58.5 -23.5t23.5 -58.5t-24 -58t-58 -23q-35 0 -58.5 23t-23.5 58zM901 63q0 35 23.5 58.5t58.5 23.5t58.5 -23.5t23.5 -58.5t-24 -58t-58 -23q-35 0 -58.5 23t-23.5 58zM1557 63q0 35 23.5 58.5t58.5 23.5t58.5 -23.5t23.5 -58.5 t-24 -58t-58 -23q-35 0 -58.5 23t-23.5 58z" />
<glyph unicode="&#x202f;" horiz-adv-x="376" />
<glyph unicode="&#x2039;" horiz-adv-x="614" d="M63 481v51l404 449l59 -49l-364 -426l364 -424l-59 -49z" />
<glyph unicode="&#x203a;" horiz-adv-x="614" d="M86 82l367 424l-367 426l59 49l406 -449v-51l-406 -448z" />
<glyph unicode="&#x205f;" horiz-adv-x="470" />
<glyph unicode="&#x20ac;" d="M76 522v70h157q-6 45 -6 96q0 35 2 66.5t7 62.5h-160v70h172q23 117 72 212t118.5 161.5t157.5 103.5t190 37q92 0 177.5 -23.5t164.5 -68.5l-38 -72q-70 39 -143 60.5t-152 21.5q-84 0 -158 -31t-131 -88t-98 -136t-60 -177h539v-70h-557q-6 -61 -6 -129q0 -27 1 -50.5 t3 -45.5h559v-70h-547q16 -104 56 -190t99.5 -147.5t135.5 -94.5t164 -33q80 0 152.5 21.5t142.5 60.5l38 -71q-80 -45 -164.5 -69t-177.5 -24q-104 0 -195 39t-162 111t-120 172t-69 225h-164z" />
<glyph unicode="&#x2122;" horiz-adv-x="1914" d="M53 1309v67h692v-67h-307v-785h-80v785h-305zM952 524v852h82l322 -438l323 438h82v-852h-75v742l-306 -414h-49l-305 414v-742h-74z" />
<glyph unicode="&#x25fc;" horiz-adv-x="993" d="M0 0v993h993v-993h-993z" />
</font>
</defs>
</svg>
